<?xml version="1.0" encoding="UTF-8" standalone="no"?>
<!-- Created with Inkscape (http://www.inkscape.org/) -->

<svg
   xmlns:dc="http://purl.org/dc/elements/1.1/"
   xmlns:cc="http://creativecommons.org/ns#"
   xmlns:rdf="http://www.w3.org/1999/02/22-rdf-syntax-ns#"
   xmlns:svg="http://www.w3.org/2000/svg"
   xmlns="http://www.w3.org/2000/svg"
   xmlns:xlink="http://www.w3.org/1999/xlink"
   xmlns:sodipodi="http://sodipodi.sourceforge.net/DTD/sodipodi-0.dtd"
   xmlns:inkscape="http://www.inkscape.org/namespaces/inkscape"
   width="384.11249"
   height="150"
   id="svg2"
   version="1.1"
   inkscape:version="0.48.4 r9939"
   sodipodi:docname="confinement.svg">
  <sodipodi:namedview
     id="base"
     pagecolor="#ffffff"
     bordercolor="#666666"
     borderopacity="1.0"
     inkscape:pageopacity="0.0"
     inkscape:pageshadow="2"
     inkscape:zoom="2.5748096"
     inkscape:cx="154.8306"
     inkscape:cy="88.487172"
     inkscape:document-units="pt"
     inkscape:current-layer="layer1"
     showgrid="false"
     units="pt"
     inkscape:window-width="2046"
     inkscape:window-height="1129"
     inkscape:window-x="0"
     inkscape:window-y="21"
     inkscape:window-maximized="0" />
  <defs
     id="defs4">
    <linearGradient
       id="linearGradient5712">
      <stop
         id="stop5714"
         offset="0"
         style="stop-color:#f4ff1b;stop-opacity:1;" />
      <stop
         id="stop5716"
         offset="1"
         style="stop-color:#c00000;stop-opacity:0;" />
    </linearGradient>
    <marker
       inkscape:stockid="Arrow2Mend"
       orient="auto"
       refY="0.0"
       refX="0.0"
       id="Arrow2Mend"
       style="overflow:visible;">
      <path
         id="path3831"
         style="fill-rule:evenodd;stroke-width:0.62500000;stroke-linejoin:round;"
         d="M 8.7185878,4.0337352 L -2.2072895,0.016013256 L 8.7185884,-4.0017078 C 6.9730900,-1.6296469 6.9831476,1.6157441 8.7185878,4.0337352 z "
         transform="scale(0.6) rotate(180) translate(0,0)" />
    </marker>
    <radialGradient
       inkscape:collect="always"
       xlink:href="#linearGradient5712"
       id="radialGradient5710"
       cx="321.96555"
       cy="89.02462"
       fx="321.96555"
       fy="89.02462"
       r="43.498363"
       gradientUnits="userSpaceOnUse" />
  </defs>
  <metadata
     id="metadata7">
    <rdf:RDF>
      <cc:Work
         rdf:about="">
        <dc:format>image/svg+xml</dc:format>
        <dc:type
           rdf:resource="http://purl.org/dc/dcmitype/StillImage" />
        <dc:title />
      </cc:Work>
    </rdf:RDF>
  </metadata>
  <g
     transform="translate(0,-902.36231)"
     id="layer1"
     inkscape:groupmode="layer"
     inkscape:label="Layer 1">
    <path
       transform="translate(23.937521,905.60261)"
       d="m 61.515974,44.544044 a 21.146116,21.146116 0 1 1 -42.292232,0 21.146116,21.146116 0 1 1 42.292232,0 z"
       sodipodi:ry="21.146116"
       sodipodi:rx="21.146116"
       sodipodi:cy="44.544044"
       sodipodi:cx="40.369858"
       id="path2987"
       style="fill:#dfdfdf;fill-opacity:1;fill-rule:evenodd;stroke:#000000;stroke-width:1px;stroke-linecap:butt;stroke-linejoin:miter;stroke-opacity:1"
       sodipodi:type="arc" />
    <path
       transform="matrix(1.0729412,0,0,1.0729412,-89.257867,901.65669)"
       d="m 145.55118,36.991859 a 7.0029345,7.0029345 0 1 1 -14.00587,0 7.0029345,7.0029345 0 1 1 14.00587,0 z"
       sodipodi:ry="7.0029345"
       sodipodi:rx="7.0029345"
       sodipodi:cy="36.991859"
       sodipodi:cx="138.54825"
       id="path3759"
       style="fill:#ff4444;fill-opacity:1;stroke:none"
       sodipodi:type="arc" />
    <path
       sodipodi:type="arc"
       style="fill:#99cc00;fill-opacity:1;stroke:none"
       id="path3761"
       sodipodi:cx="138.54825"
       sodipodi:cy="36.991859"
       sodipodi:rx="7.0029345"
       sodipodi:ry="7.0029345"
       d="m 145.55118,36.991859 a 7.0029345,7.0029345 0 1 1 -14.00587,0 7.0029345,7.0029345 0 1 1 14.00587,0 z"
       transform="matrix(1.0729412,0,0,1.0729412,-73.457656,911.33938)" />
    <path
       transform="matrix(1.0729412,0,0,1.0729412,-89.527094,919.46157)"
       d="m 145.55118,36.991859 a 7.0029345,7.0029345 0 1 1 -14.00587,0 7.0029345,7.0029345 0 1 1 14.00587,0 z"
       sodipodi:ry="7.0029345"
       sodipodi:rx="7.0029345"
       sodipodi:cy="36.991859"
       sodipodi:cx="138.54825"
       id="path3763"
       style="fill:#33b5e5;fill-opacity:1;stroke:none"
       sodipodi:type="arc" />
    <path
       id="path3004"
       title="t+cos(3*t) 3+sin(3*t)"
       d="m 57.88018,958.27899 c 0.04104,0.0907 0.08826,0.1806 0.141555,0.26882 0.0533,0.0882 0.11279,0.17481 0.177905,0.25878 0.0651,0.084 0.136106,0.1655 0.212485,0.24365 0.07631,0.0781 0.158074,0.15303 0.244658,0.22373 0.0866,0.0708 0.178041,0.13742 0.273769,0.19942 0.09569,0.062 0.19571,0.11918 0.29928,0.17131 0.103555,0.052 0.210714,0.0987 0.320673,0.13971 0.109914,0.0409 0.222734,0.0762 0.337523,0.1053 0.114758,0.0291 0.231575,0.0521 0.349528,0.0691 0.117938,0.0177 0.237041,0.0271 0.356403,0.0311 0.1193,0.004 0.239029,10e-4 0.358059,-0.007 0.11901,-0.008 0.23751,-0.024 0.35446,-0.0452 0.11704,-0.0214 0.23246,-0.0492 0.34565,-0.0827 0.11324,-0.0335 0.22405,-0.0731 0.33182,-0.11833 0.10779,-0.0451 0.21239,-0.0961 0.3132,-0.15182 0.1008,-0.0558 0.19776,-0.11678 0.29025,-0.18214 0.0924,-0.0655 0.18042,-0.13531 0.26332,-0.20895 0.0829,-0.0738 0.16072,-0.15113 0.23301,-0.23169 0.0723,-0.0805 0.13897,-0.16409 0.19987,-0.24985 0.0608,-0.0858 0.11582,-0.17376 0.16454,-0.26315 0.0487,-0.0893 0.0914,-0.18005 0.12778,-0.27122 0.0363,-0.0911 0.0665,-0.18279 0.0902,-0.27402 0.0237,-0.0912 0.0414,-0.18195 0.0527,-0.27142 0.0122,-0.0894 0.0166,-0.17757 0.0159,-0.26348 -8.4e-4,-0.086 -0.007,-0.16972 -0.0195,-0.25043 -0.0122,-0.0807 -0.0299,-0.15847 -0.0527,-0.2324 -0.0228,-0.0739 -0.0507,-0.14409 -0.0831,-0.20984 -0.0324,-0.0658 -0.0693,-0.1269 -0.11021,-0.18316 -0.0409,-0.0561 -0.0855,-0.10731 -0.13323,-0.15287 -0.0479,-0.0456 -0.0987,-0.0856 -0.15203,-0.11952 -0.0533,-0.034 -0.10885,-0.0622 -0.16605,-0.0839 -0.0571,-0.022 -0.11582,-0.0373 -0.17505,-0.0467 -0.0592,-0.008 -0.11915,-0.0123 -0.17883,-0.008 -0.0596,0.004 -0.119,0.0141 -0.17738,0.0299 -0.0583,0.0159 -0.11551,0.039 -0.17067,0.0676 -0.0552,0.0285 -0.10839,0.0636 -0.15885,0.10411 -0.0504,0.0405 -0.0981,0.0868 -0.14215,0.13846 -0.0441,0.0516 -0.0846,0.1085 -0.12097,0.17007 -0.0364,0.0616 -0.0684,0.12796 -0.0955,0.19851 -0.0272,0.0706 -0.0495,0.14498 -0.0667,0.22294 -0.017,0.0778 -0.0286,0.15918 -0.0346,0.24302 -0.006,0.0838 -0.006,0.17025 2e-5,0.25832 0.006,0.0881 0.018,0.17794 0.0364,0.26856 0.0183,0.0906 0.0428,0.18214 0.0736,0.27354 0.0307,0.0914 0.0678,0.18274 0.11112,0.27313 0.0434,0.0904 0.0929,0.17978 0.14837,0.26736 0.0555,0.0875 0.11719,0.17323 0.18445,0.25636 0.0673,0.083 0.14034,0.16341 0.21862,0.24031 0.0782,0.0769 0.1619,0.15041 0.25025,0.21958 0.0884,0.0694 0.18152,0.13428 0.27879,0.1945 0.0972,0.0602 0.19868,0.11572 0.30354,0.16569 0.10491,0.05 0.21315,0.0946 0.32413,0.13356 0.11097,0.0387 0.22461,0.0719 0.34011,0.0988 0.11552,0.0268 0.23285,0.0476 0.35118,0.0622 0.11839,0.0141 0.23768,0.0225 0.35712,0.0242 0.11945,10e-4 0.23901,-0.004 0.35778,-0.0141 0.11885,-0.0107 0.23684,-0.0285 0.35324,-0.0524 0.11641,-0.0237 0.23115,-0.0535 0.34345,-0.0893 0.11234,-0.0358 0.22214,-0.0776 0.32873,-0.12479 0.10658,-0.0473 0.20992,-0.0999 0.3093,-0.1576 0.0993,-0.0578 0.19477,-0.12041 0.28554,-0.18738 0.0908,-0.067 0.17698,-0.13847 0.25798,-0.21347 0.081,-0.0751 0.15685,-0.15375 0.22709,-0.2354 0.0703,-0.0816 0.13489,-0.16621 0.1935,-0.25268 0.0586,-0.0865 0.11127,-0.17516 0.15785,-0.26502 0.0465,-0.0899 0.0869,-0.18082 0.12098,-0.27215 0.034,-0.0912 0.0618,-0.18292 0.0832,-0.27393 0.0215,-0.0911 0.0368,-0.18142 0.0459,-0.27037 0.009,-0.0889 0.0122,-0.17635 0.009,-0.26145 -0.003,-0.085 -0.0122,-0.1678 -0.0257,-0.24746 -0.0136,-0.0796 -0.0339,-0.15602 -0.0584,-0.22858 -0.0246,-0.0725 -0.0543,-0.14111 -0.0884,-0.2052 -0.034,-0.0641 -0.0726,-0.12356 -0.11476,-0.17784 -0.0422,-0.0542 -0.088,-0.1034 -0.13701,-0.14691 -0.0489,-0.0435 -0.1008,-0.0814 -0.15499,-0.11323 -0.054,-0.0317 -0.11036,-0.0576 -0.16808,-0.0772 -0.0577,-0.0195 -0.11672,-0.0328 -0.17613,-0.0397 -0.0595,-0.007 -0.11946,-0.007 -0.17896,-10e-4 -0.0595,0.005 -0.11871,0.0182 -0.17654,0.0368 -0.0578,0.0187 -0.11445,0.0435 -0.16886,0.0745 -0.0545,0.0308 -0.10673,0.068 -0.15613,0.11062 -0.0493,0.0426 -0.0958,0.0911 -0.13854,0.14461 -0.0427,0.0535 -0.0817,0.1124 -0.11657,0.17565 -0.0347,0.0634 -0.0651,0.13128 -0.0905,0.2033 -0.0255,0.072 -0.0459,0.14778 -0.0608,0.227 -0.0151,0.0791 -0.0246,0.16147 -0.0283,0.24621 -0.003,0.0847 -10e-4,0.17182 0.006,0.26059 0.007,0.0886 0.0225,0.17897 0.0432,0.26989 0.0205,0.0908 0.0473,0.18251 0.0805,0.27386 0.0331,0.0914 0.0725,0.18246 0.11809,0.27247 0.0456,0.09 0.0974,0.17885 0.15516,0.26571 0.0578,0.0868 0.12158,0.17166 0.19089,0.25379 0.0693,0.082 0.14444,0.16129 0.22468,0.23683 0.0802,0.0757 0.16569,0.14761 0.25578,0.21525 0.0901,0.0677 0.18487,0.1311 0.28363,0.18946 0.0988,0.0585 0.20158,0.11204 0.30767,0.1599 0.10613,0.0481 0.21551,0.0905 0.32745,0.12723 0.11187,0.0366 0.22637,0.0674 0.34252,0.0921 0.11612,0.0245 0.23401,0.043 0.35267,0.0551 0.11869,0.0123 0.23818,0.0178 0.35764,0.0177 0.11945,-4.8e-4 0.23886,-0.007 0.35734,-0.0214 0.11854,-0.0141 0.23605,-0.0333 0.3518,-0.0593 0.11582,-0.0259 0.22974,-0.0581 0.34111,-0.0961 0.11144,-0.0379 0.22011,-0.0817 0.32549,-0.13092 0.10537,-0.0492 0.20735,-0.10388 0.30522,-0.16341 0.098,-0.0596 0.19168,-0.1239 0.28076,-0.19248 0.089,-0.0687 0.17342,-0.14145 0.25251,-0.21785 0.079,-0.0763 0.15292,-0.15637 0.22107,-0.23893 0.0681,-0.0827 0.13065,-0.16814 0.18705,-0.25533 0.0565,-0.0872 0.10688,-0.17651 0.1511,-0.26673 0.0443,-0.0901 0.0822,-0.1815 0.114,-0.27289 0.0318,-0.0914 0.0573,-0.18292 0.0765,-0.27369 0.0192,-0.0907 0.0321,-0.18075 0.0391,-0.26911 0.007,-0.0882 0.007,-0.17499 0.003,-0.25927 -0.004,-0.0842 -0.0159,-0.16585 -0.0319,-0.24432 -0.0162,-0.0784 -0.0377,-0.15356 -0.0643,-0.2246 -0.0265,-0.0712 -0.0578,-0.13812 -0.0936,-0.20046 -0.0358,-0.0623 -0.0756,-0.12004 -0.11916,-0.17233 -0.0437,-0.0525 -0.0907,-0.0995 -0.1408,-0.14093 -0.0499,-0.0415 -0.1028,-0.0771 -0.15776,-0.10672 -0.0549,-0.0296 -0.11189,-0.0532 -0.16997,-0.0704 -0.0581,-0.0176 -0.11748,-0.0281 -0.17703,-0.0326 -0.0596,-0.004 -0.11961,-10e-4 -0.17893,0.005 -0.0593,0.008 -0.11808,0.0231 -0.1755,0.0438 -0.0574,0.021 -0.11324,0.0481 -0.16689,0.0813 -0.0536,0.0332 -0.10492,0.0724 -0.15325,0.11713 -0.0483,0.0448 -0.0934,0.0951 -0.13489,0.15041 -0.0414,0.0554 -0.0788,0.11608 -0.11203,0.18103 -0.0331,0.0652 -0.0618,0.13461 -0.0852,0.20798 -0.0236,0.0734 -0.0421,0.15058 -0.0551,0.23089 -0.0137,0.0802 -0.0204,0.16357 -0.0219,0.24924 -0.001,0.0856 0.003,0.17339 0.0136,0.2627 0.0106,0.0892 0.0271,0.17988 0.0499,0.27101 0.0228,0.0911 0.0521,0.18277 0.0875,0.27401 0.0355,0.0912 0.0771,0.18207 0.12505,0.27162 0.0478,0.0895 0.10192,0.17781 0.16187,0.26391 0.0599,0.0861 0.12581,0.17007 0.1973,0.25102 0.0715,0.0809 0.14851,0.159 0.23062,0.2332 0.082,0.0741 0.16941,0.14479 0.26118,0.21079 0.0917,0.066 0.18813,0.1276 0.28837,0.18426 0.10019,0.0567 0.20435,0.10814 0.31166,0.15409 0.10733,0.046 0.21774,0.0864 0.33058,0.12094 0.11278,0.0346 0.22803,0.063 0.34477,0.0853 0.11673,0.0223 0.23504,0.0384 0.35399,0.0482 0.11899,0.0107 0.23856,0.0123 0.35797,0.0107 0.11946,-0.004 0.23861,-0.0123 0.35672,-0.0282 0.11809,-0.0159 0.23514,-0.0379 0.35021,-0.0662 0.11506,-0.0282 0.22821,-0.0627 0.33861,-0.10269 0.11036,-0.04 0.21798,-0.086 0.32207,-0.13707 0.10416,-0.0513 0.20466,-0.10779 0.30102,-0.16902 0.0963,-0.0612 0.18849,-0.12724 0.27579,-0.19744 0.0873,-0.0702 0.1698,-0.14446 0.24694,-0.22208 0.0771,-0.0776 0.14897,-0.15866 0.21498,-0.24232 0.0661,-0.0835 0.12627,-0.1699 0.18055,-0.25782 0.0542,-0.0879 0.10235,-0.1777 0.14428,-0.26827 0.042,-0.0905 0.0777,-0.18202 0.10704,-0.27342 0.0295,-0.0914 0.0526,-0.18281 0.0695,-0.27326 0.0169,-0.0904 0.0275,-0.17996 0.0322,-0.26768 0.004,-0.0878 0.003,-0.17359 -0.003,-0.25689 -0.007,-0.0832 -0.0199,-0.16394 -0.0381,-0.24103 -0.0182,-0.0772 -0.0417,-0.15095 -0.0699,-0.22047 -0.0283,-0.0694 -0.0614,-0.13495 -0.0986,-0.19555 -0.0372,-0.0605 -0.0785,-0.11643 -0.12353,-0.1669 -0.0449,-0.0503 -0.0933,-0.0955 -0.14428,-0.1348 -0.051,-0.0393 -0.10477,-0.0728 -0.16039,-0.1002 -0.0555,-0.0274 -0.11309,-0.0486 -0.17165,-0.0636 -0.0586,-0.0159 -0.11809,-0.0236 -0.17778,-0.0257 -0.0596,-10e-4 -0.11961,10e-4 -0.17869,0.0123 -0.0592,0.0107 -0.11748,0.0277 -0.17429,0.0509 -0.0568,0.0231 -0.11204,0.0527 -0.16476,0.0879 -0.0528,0.0353 -0.10309,0.0766 -0.15019,0.12339 -0.0471,0.0467 -0.091,0.099 -0.13095,0.15638 -0.04,0.0572 -0.076,0.11952 -0.10733,0.18628 -0.0313,0.0667 -0.0583,0.13776 -0.0799,0.21253 -0.0216,0.0747 -0.0381,0.15322 -0.0492,0.23462 -0.0106,0.0814 -0.0162,0.16568 -0.0156,0.25208 4.1e-4,0.0864 0.007,0.17499 0.0198,0.26464 0.0122,0.0897 0.0317,0.18068 0.0568,0.27198 0.0252,0.0913 0.0566,0.1829 0.0945,0.27398 0.0377,0.0911 0.0817,0.18155 0.13187,0.27059 0.0501,0.089 0.10644,0.17662 0.16851,0.2619 0.0621,0.0853 0.13021,0.16831 0.20363,0.2481 0.0734,0.0798 0.15251,0.15656 0.2365,0.22939 0.084,0.0728 0.17302,0.14181 0.26646,0.2062 0.0935,0.0644 0.19134,0.12427 0.29297,0.17897 0.10161,0.0548 0.20705,0.10423 0.31549,0.14813 0.1084,0.0438 0.2199,0.0823 0.33355,0.11465 0.1137,0.0322 0.22961,0.0586 0.34688,0.0787 0.11732,0.0199 0.23595,0.0339 0.35511,0.0412 0.11915,0.007 0.23883,0.008 0.35814,0.004 0.1193,-0.005 0.23823,-0.0177 0.3559,-0.0354 0.11763,-0.0181 0.23412,-0.0424 0.34846,-0.073 0.11431,-0.0304 0.22656,-0.067 0.33591,-0.1092 0.10929,-0.0422 0.21574,-0.0901 0.31853,-0.14322 0.10279,-0.0532 0.20189,-0.11146 0.29666,-0.17446 0.0948,-0.063 0.18522,-0.13057 0.27074,-0.20229 0.0855,-0.0717 0.16608,-0.14726 0.24124,-0.22616 0.0752,-0.0788 0.1449,-0.16094 0.2088,-0.24554 0.0639,-0.0846 0.12203,-0.17164 0.17399,-0.26012"
       style="fill:none;stroke:#000000;stroke-width:0.5;stroke-miterlimit:4;stroke-opacity:1;stroke-dasharray:none"
       inkscape:connector-curvature="0" />
    <text
       xml:space="preserve"
       style="font-size:10px;font-style:normal;font-variant:normal;font-weight:500;font-stretch:normal;text-align:center;line-height:125%;letter-spacing:0px;word-spacing:0px;text-anchor:middle;fill:#000000;fill-opacity:1;stroke:none;font-family:CMU Sans Serif;-inkscape-font-specification:CMU Sans Serif Medium"
       x="88.255455"
       y="916.42993"
       id="text3782"
       sodipodi:linespacing="125%"><tspan
         sodipodi:role="line"
         x="88.255455"
         y="916.42993"
         id="tspan3790">quarks &amp; gluons confined to hadrons</tspan></text>
    <text
       sodipodi:linespacing="125%"
       id="text3786"
       y="918.37189"
       x="240.60031"
       style="font-size:10px;font-style:normal;font-variant:normal;font-weight:500;font-stretch:normal;line-height:125%;letter-spacing:0px;word-spacing:0px;fill:#000000;fill-opacity:1;stroke:none;font-family:CMU Sans Serif;-inkscape-font-specification:CMU Sans Serif Medium"
       xml:space="preserve"><tspan
         y="918.37189"
         x="240.60031"
         id="tspan3788"
         sodipodi:role="line">deconfined quark-gluon plasma</tspan></text>
    <text
       sodipodi:linespacing="125%"
       id="text3794"
       y="970.41449"
       x="188.84543"
       style="font-size:10px;font-style:normal;font-variant:normal;font-weight:500;font-stretch:normal;text-align:center;line-height:125%;letter-spacing:0px;word-spacing:0px;text-anchor:middle;fill:#000000;fill-opacity:1;stroke:none;font-family:CMU Sans Serif;-inkscape-font-specification:CMU Sans Serif Medium"
       xml:space="preserve"><tspan
         id="tspan3796"
         y="970.41449"
         x="188.84543"
         sodipodi:role="line">T ∼ 165 MeV</tspan></text>
    <path
       style="fill:none;stroke:#000000;stroke-width:1.03453088px;stroke-linecap:butt;stroke-linejoin:miter;stroke-opacity:1;marker-end:url(#Arrow2Mend)"
       d="m 143.32884,976.62889 85.38021,0"
       id="path3798"
       inkscape:connector-curvature="0" />
    <path
       sodipodi:type="arc"
       style="fill:url(#radialGradient5710);fill-opacity:1;stroke:none"
       id="path4263"
       sodipodi:cx="321.96555"
       sodipodi:cy="89.02462"
       sodipodi:rx="43.498363"
       sodipodi:ry="43.498363"
       d="m 365.46391,89.02462 a 43.498363,43.498363 0 1 1 -86.99673,0 43.498363,43.498363 0 1 1 86.99673,0 z"
       transform="matrix(1.3348215,0,0,1.3348215,-116.15109,868.47699)" />
  </g>
</svg>
