<?xml version="1.0" encoding="UTF-8" standalone="no"?>
<!-- Created with Inkscape (http://www.inkscape.org/) -->

<svg
   xmlns:dc="http://purl.org/dc/elements/1.1/"
   xmlns:cc="http://creativecommons.org/ns#"
   xmlns:rdf="http://www.w3.org/1999/02/22-rdf-syntax-ns#"
   xmlns:svg="http://www.w3.org/2000/svg"
   xmlns="http://www.w3.org/2000/svg"
   xmlns:xlink="http://www.w3.org/1999/xlink"
   xmlns:sodipodi="http://sodipodi.sourceforge.net/DTD/sodipodi-0.dtd"
   xmlns:inkscape="http://www.inkscape.org/namespaces/inkscape"
   width="192.0625"
   height="118.7"
   id="svg3087"
   version="1.1"
   inkscape:version="0.48.4 r9939"
   sodipodi:docname="deconfined.svg">
  <defs
     id="defs3089">
    <radialGradient
       inkscape:collect="always"
       xlink:href="#linearGradient5712"
       id="radialGradient5710"
       cx="321.96555"
       cy="89.02462"
       fx="321.96555"
       fy="89.02462"
       r="43.498363"
       gradientUnits="userSpaceOnUse" />
    <linearGradient
       id="linearGradient5712">
      <stop
         id="stop5714"
         offset="0"
         style="stop-color:#f4ff1b;stop-opacity:1;" />
      <stop
         id="stop5716"
         offset="1"
         style="stop-color:#c00000;stop-opacity:0;" />
    </linearGradient>
    <radialGradient
       r="43.498363"
       fy="89.02462"
       fx="321.96555"
       cy="89.02462"
       cx="321.96555"
       gradientUnits="userSpaceOnUse"
       id="radialGradient3110"
       xlink:href="#linearGradient5712"
       inkscape:collect="always" />
  </defs>
  <sodipodi:namedview
     id="base"
     pagecolor="#ffffff"
     bordercolor="#666666"
     borderopacity="1.0"
     inkscape:pageopacity="0.0"
     inkscape:pageshadow="2"
     inkscape:zoom="5.6"
     inkscape:cx="119.06143"
     inkscape:cy="83.167195"
     inkscape:document-units="pt"
     inkscape:current-layer="layer1"
     showgrid="false"
     units="pt"
     inkscape:window-width="2046"
     inkscape:window-height="1129"
     inkscape:window-x="0"
     inkscape:window-y="21"
     inkscape:window-maximized="0" />
  <metadata
     id="metadata3092">
    <rdf:RDF>
      <cc:Work
         rdf:about="">
        <dc:format>image/svg+xml</dc:format>
        <dc:type
           rdf:resource="http://purl.org/dc/dcmitype/StillImage" />
        <dc:title></dc:title>
      </cc:Work>
    </rdf:RDF>
  </metadata>
  <g
     inkscape:label="Layer 1"
     inkscape:groupmode="layer"
     id="layer1"
     transform="translate(0,-933.66221)">
    <path
       sodipodi:type="arc"
       style="fill:url(#radialGradient3110);fill-opacity:1;stroke:none"
       id="path4263"
       sodipodi:cx="321.96555"
       sodipodi:cy="89.02462"
       sodipodi:rx="43.498363"
       sodipodi:ry="43.498363"
       d="m 365.46391,89.02462 a 43.498363,43.498363 0 1 1 -86.99673,0 43.498363,43.498363 0 1 1 86.99673,0 z"
       transform="matrix(2.207698,0,0,1.3644191,-614.77144,871.54531)" />
    <path
       transform="matrix(1.0729412,0,0,1.0729412,-18.039635,933.40883)"
       d="m 145.55118,36.991859 a 7.0029345,7.0029345 0 1 1 -14.00587,0 7.0029345,7.0029345 0 1 1 14.00587,0 z"
       sodipodi:ry="7.0029345"
       sodipodi:rx="7.0029345"
       sodipodi:cy="36.991859"
       sodipodi:cx="138.54825"
       id="path3759"
       style="fill:#ff4444;fill-opacity:1;stroke:none"
       sodipodi:type="arc" />
    <path
       sodipodi:type="arc"
       style="fill:#99cc00;fill-opacity:1;stroke:none"
       id="path3761"
       sodipodi:cx="138.54825"
       sodipodi:cy="36.991859"
       sodipodi:rx="7.0029345"
       sodipodi:ry="7.0029345"
       d="m 145.55118,36.991859 a 7.0029345,7.0029345 0 1 1 -14.00587,0 7.0029345,7.0029345 0 1 1 14.00587,0 z"
       transform="matrix(1.0729412,0,0,1.0729412,-24.025139,955.94866)" />
    <path
       transform="matrix(1.0729412,0,0,1.0729412,-41.880291,979.42799)"
       d="m 145.55118,36.991859 a 7.0029345,7.0029345 0 1 1 -14.00587,0 7.0029345,7.0029345 0 1 1 14.00587,0 z"
       sodipodi:ry="7.0029345"
       sodipodi:rx="7.0029345"
       sodipodi:cy="36.991859"
       sodipodi:cx="138.54825"
       id="path3763"
       style="fill:#33b5e5;fill-opacity:1;stroke:none"
       sodipodi:type="arc" />
    <path
       inkscape:connector-curvature="0"
       style="fill:none;stroke:#000000;stroke-width:0.5;stroke-miterlimit:4;stroke-opacity:1;stroke-dasharray:none"
       d="m 117.61462,1011.4893 c 0.0826,0.055 0.17015,0.107 0.26187,0.154 0.0917,0.047 0.18792,0.089 0.28749,0.1264 0.0996,0.037 0.20283,0.069 0.30891,0.095 0.10599,0.026 0.21497,0.047 0.3258,0.061 0.1109,0.015 0.22371,0.023 0.33774,0.025 0.11401,0 0.22914,0 0.34464,-0.012 0.11542,-0.01 0.23111,-0.027 0.34618,-0.05 0.11499,-0.023 0.2295,-0.053 0.34241,-0.088 0.11289,-0.036 0.22432,-0.078 0.33355,-0.1253 0.10959,-0.047 0.21581,-0.1017 0.3194,-0.1612 0.10354,-0.059 0.20375,-0.1249 0.30074,-0.1944 0.097,-0.069 0.18931,-0.1454 0.27758,-0.225 0.0883,-0.08 0.17174,-0.1642 0.25035,-0.2523 0.0786,-0.088 0.15201,-0.1801 0.21983,-0.2753 0.0679,-0.095 0.12999,-0.1935 0.18636,-0.2939 0.0563,-0.1006 0.10667,-0.2034 0.1509,-0.3077 0.0441,-0.1043 0.0822,-0.21 0.11388,-0.3163 0.0316,-0.1064 0.0571,-0.2131 0.0761,-0.3196 0.0191,-0.1065 0.0318,-0.2127 0.0384,-0.3177 0.006,-0.1049 0.007,-0.2087 10e-4,-0.3103 -0.006,-0.1016 -0.0171,-0.2012 -0.0341,-0.2979 -0.0171,-0.097 -0.0397,-0.1904 -0.0676,-0.2804 -0.0279,-0.09 -0.0606,-0.1765 -0.0981,-0.2586 -0.0367,-0.082 -0.0794,-0.1597 -0.12518,-0.2323 -0.046,-0.073 -0.0953,-0.1407 -0.14841,-0.2027 -0.0529,-0.062 -0.10884,-0.119 -0.16715,-0.1698 -0.0583,-0.051 -0.11896,-0.096 -0.18112,-0.1347 -0.0622,-0.039 -0.12572,-0.071 -0.19012,-0.098 -0.0643,-0.026 -0.12918,-0.046 -0.19375,-0.06 -0.0647,-0.014 -0.12898,-0.021 -0.19217,-0.022 -0.0632,-9e-4 -0.12529,0 -0.18535,0.016 -0.0601,0.011 -0.11811,0.029 -0.17342,0.052 -0.0545,0.024 -0.10778,0.052 -0.15625,0.087 -0.0486,0.035 -0.0937,0.075 -0.13508,0.1188 -0.0412,0.044 -0.0777,0.094 -0.10952,0.1473 -0.0319,0.053 -0.0587,0.1111 -0.0802,0.1721 -0.0215,0.061 -0.0377,0.1255 -0.048,0.1926 -0.0103,0.067 -0.0148,0.1368 -0.0133,0.2083 0.001,0.071 0.009,0.1448 0.0233,0.219 0.014,0.074 0.0342,0.1493 0.0607,0.2247 0.0265,0.075 0.0595,0.1504 0.0985,0.2248 0.039,0.074 0.0845,0.1479 0.136,0.2196 0.0515,0.072 0.10898,0.1419 0.17233,0.2092 0.0633,0.067 0.13227,0.1323 0.20657,0.1938 0.0742,0.062 0.15385,0.1197 0.23826,0.1738 0.0845,0.054 0.17363,0.1039 0.26689,0.1492 0.0933,0.045 0.19083,0.086 0.29178,0.1208 0.10091,0.035 0.20534,0.065 0.31238,0.089 0.10697,0.024 0.21683,0.043 0.32836,0.055 0.11169,0.013 0.22502,0.019 0.33942,0.019 0.11433,10e-5 0.22984,-0.01 0.3453,-0.019 0.11552,-0.013 0.23103,-0.032 0.34589,-0.057 0.11473,-0.026 0.22882,-0.057 0.34118,-0.095 0.11233,-0.038 0.22304,-0.082 0.33133,-0.1319 0.10808,-0.05 0.21392,-0.106 0.31637,-0.1675 0.10209,-0.062 0.20111,-0.1292 0.29677,-0.2003 0.0954,-0.072 0.18637,-0.1489 0.27275,-0.2305 0.0865,-0.081 0.16837,-0.1672 0.245,-0.2567 0.0767,-0.09 0.14802,-0.1829 0.2138,-0.2792 0.0657,-0.096 0.12589,-0.1954 0.18001,-0.2968 0.054,-0.1014 0.10221,-0.2049 0.14413,-0.3096 0.0419,-0.1048 0.0776,-0.2109 0.10697,-0.3173 0.0293,-0.1065 0.0524,-0.2133 0.0692,-0.3197 0.0168,-0.1064 0.0272,-0.2123 0.0315,-0.3167 0.004,-0.1044 0.002,-0.2075 -0.005,-0.3084 -0.008,-0.1009 -0.0213,-0.1995 -0.0404,-0.2951 -0.0191,-0.095 -0.0437,-0.1881 -0.0735,-0.2767 -0.0297,-0.089 -0.0642,-0.1736 -0.10331,-0.254 -0.0392,-0.08 -0.0825,-0.1564 -0.12998,-0.2271 -0.0473,-0.071 -0.0987,-0.1362 -0.15212,-0.1968 -0.0535,-0.06 -0.11095,-0.1148 -0.16998,-0.1636 -0.0591,-0.049 -0.12045,-0.091 -0.18318,-0.128 -0.0627,-0.037 -0.12677,-0.067 -0.19119,-0.091 -0.0644,-0.024 -0.12925,-0.042 -0.19383,-0.053 -0.0645,-0.011 -0.12855,-0.016 -0.19138,-0.015 -0.0626,10e-4 -0.12415,0.01 -0.18354,0.023 -0.0593,0.014 -0.11651,0.034 -0.17065,0.059 -0.0543,0.025 -0.10526,0.057 -0.15269,0.093 -0.048,0.036 -0.0914,0.078 -0.13072,0.1243 -0.0393,0.046 -0.0744,0.097 -0.10435,0.1522 -0.0301,0.055 -0.0549,0.114 -0.0745,0.1762 -0.0195,0.062 -0.0335,0.1279 -0.0417,0.1959 -0.008,0.068 -0.0103,0.1386 -0.007,0.2107 0.004,0.072 0.0138,0.1459 0.0301,0.2205 0.0162,0.075 0.0388,0.1498 0.0678,0.225 0.0288,0.075 0.0641,0.1503 0.10555,0.2243 0.042,0.074 0.0896,0.1466 0.14228,0.2184 0.0526,0.072 0.11334,0.1403 0.1788,0.2067 0.0652,0.066 0.1363,0.1303 0.21261,0.1904 0.0763,0.06 0.15769,0.117 0.24384,0.1695 0.0862,0.052 0.17696,0.1008 0.2718,0.1443 0.0948,0.043 0.19373,0.082 0.2959,0.1153 0.10208,0.033 0.20771,0.061 0.3157,0.083 0.10803,0.022 0.21857,0.038 0.33078,0.048 0.11224,0.01 0.22619,0.014 0.34088,0.012 0.1148,0 0.23037,-0.011 0.34577,-0.026 0.11555,-0.015 0.23087,-0.037 0.34538,-0.064 0.11438,-0.028 0.22794,-0.062 0.3397,-0.102 0.11163,-0.04 0.2216,-0.087 0.32886,-0.1388 0.10738,-0.052 0.21187,-0.1103 0.31339,-0.1733 0.1013,-0.063 0.1994,-0.1317 0.29255,-0.2063 0.0934,-0.074 0.18317,-0.1525 0.26789,-0.2356 0.0848,-0.083 0.16475,-0.1703 0.23943,-0.2613 0.0748,-0.091 0.14414,-0.1853 0.20782,-0.2826 0.0637,-0.097 0.12161,-0.1975 0.17349,-0.2996 0.052,-0.1023 0.0978,-0.2063 0.13738,-0.3115 0.0395,-0.1052 0.073,-0.2115 0.10001,-0.3181 0.027,-0.1065 0.0477,-0.2135 0.0622,-0.3195 0.0144,-0.1062 0.0226,-0.2118 0.0246,-0.3156 0.002,-0.1039 -0.002,-0.2063 -0.0119,-0.3063 -0.01,-0.1 -0.0257,-0.1976 -0.0467,-0.2921 -0.0211,-0.094 -0.0476,-0.1856 -0.079,-0.2729 -0.0314,-0.087 -0.0679,-0.1706 -0.10842,-0.2494 -0.0405,-0.079 -0.0862,-0.1525 -0.13394,-0.222 -0.0477,-0.069 -0.10082,-0.1327 -0.15574,-0.191 -0.0551,-0.058 -0.11289,-0.1107 -0.1729,-0.1571 -0.06,-0.047 -0.12185,-0.087 -0.18511,-0.1211 -0.0632,-0.034 -0.12747,-0.062 -0.19203,-0.084 -0.0648,-0.022 -0.12949,-0.037 -0.1939,-0.046 -0.0643,-0.01 -0.12799,-0.011 -0.19031,-0.01 -0.0623,0 -0.12314,0.014 -0.18157,0.03 -0.0587,0.016 -0.11468,0.038 -0.16768,0.066 -0.0528,0.028 -0.10222,0.062 -0.1495,0.098 -0.0462,0.038 -0.0882,0.082 -0.12615,0.1296 -0.0377,0.048 -0.071,0.1005 -0.0991,0.157 -0.0281,0.056 -0.0511,0.1168 -0.0686,0.1802 -0.0175,0.063 -0.0293,0.1301 -0.0355,0.1989 -0.006,0.069 -0.006,0.1402 4e-5,0.2129 0.006,0.073 0.0183,0.147 0.0371,0.2217 0.0186,0.075 0.0435,0.1502 0.0747,0.2253 0.0306,0.075 0.0688,0.1498 0.11259,0.2234 0.0442,0.073 0.0938,0.1459 0.14985,0.2162 0.056,0.07 0.11774,0.1387 0.18509,0.2042 0.0673,0.065 0.14052,0.128 0.21864,0.1869 0.0782,0.059 0.1614,0.1142 0.24931,0.1651 0.0878,0.051 0.18026,0.097 0.27655,0.1392 0.0962,0.042 0.1965,0.078 0.2999,0.1095 0.10337,0.031 0.20996,0.057 0.31884,0.077 0.10872,0.02 0.22025,0.034 0.33302,0.042 0.11271,0.01 0.22713,0.01 0.34218,0 0.11503,0 0.23067,-0.016 0.3461,-0.033 0.11547,-0.017 0.23061,-0.041 0.34473,-0.071 0.1141,-0.03 0.22704,-0.066 0.33803,-0.1089 0.11099,-0.043 0.22006,-0.091 0.32635,-0.1454 0.1068,-0.053 0.2093,-0.1151 0.30999,-0.1793 0.0995,-0.066 0.19639,-0.1361 0.28844,-0.2118 0.092,-0.076 0.17997,-0.156 0.26291,-0.2406 0.083,-0.084 0.16102,-0.1735 0.23384,-0.2656 0.0728,-0.092 0.14006,-0.1879 0.20167,-0.2861 0.0615,-0.098 0.11726,-0.1994 0.16696,-0.3022 0.0497,-0.1027 0.0933,-0.2074 0.13055,-0.313 0.0373,-0.1057 0.0683,-0.2122 0.0931,-0.3188 0.0247,-0.1066 0.0431,-0.2133 0.0552,-0.3192 0.0122,-0.1058 0.0179,-0.2109 0.0178,-0.3143 -1.9e-4,-0.1032 -0.007,-0.2049 -0.0186,-0.304 -0.0119,-0.099 -0.0298,-0.1957 -0.0529,-0.2888 -0.023,-0.093 -0.0515,-0.1831 -0.0848,-0.2689 -0.0332,-0.086 -0.0714,-0.1675 -0.11354,-0.2446 -0.0428,-0.077 -0.0888,-0.1492 -0.13778,-0.2168 -0.0497,-0.067 -0.10322,-0.1289 -0.15928,-0.1849 -0.0561,-0.056 -0.11492,-0.1064 -0.17549,-0.1506 -0.0606,-0.044 -0.12324,-0.082 -0.18677,-0.1144 -0.0635,-0.032 -0.12804,-0.058 -0.19289,-0.077 -0.0647,-0.019 -0.1296,-0.032 -0.19363,-0.039 -0.0641,-0.01 -0.1274,-0.01 -0.18912,-8e-4 -0.0616,0.01 -0.12173,0.018 -0.17942,0.036 -0.0582,0.017 -0.11283,0.042 -0.16468,0.072 -0.0512,0.03 -0.10117,0.064 -0.14545,0.1046 -0.0447,0.04 -0.0853,0.085 -0.12139,0.135 -0.0361,0.049 -0.0675,0.1038 -0.0938,0.1615 -0.0263,0.058 -0.0473,0.1194 -0.0627,0.1839 -0.0155,0.065 -0.0253,0.1321 -0.029,0.2019 -0.004,0.07 -0.002,0.1417 0.007,0.2149 0.008,0.073 0.023,0.1478 0.0439,0.2228 0.021,0.075 0.0483,0.1503 0.0817,0.2253 0.0338,0.075 0.0734,0.1494 0.11943,0.2226 0.0458,0.073 0.0981,0.1451 0.15615,0.2146 0.0576,0.07 0.12207,0.1369 0.19147,0.2013 0.0695,0.064 0.1444,0.1257 0.22457,0.1832 0.08,0.058 0.16504,0.1114 0.25457,0.1606 0.0894,0.049 0.18347,0.094 0.28114,0.134 0.0977,0.04 0.19931,0.075 0.30373,0.1038 0.10442,0.029 0.21209,0.053 0.32184,0.071 0.10974,0.018 0.22176,0.029 0.3351,0.035 0.11339,0.01 0.2281,0 0.3433,0 0.11524,-0.01 0.23091,-0.02 0.34622,-0.04 0.11522,-0.02 0.23029,-0.046 0.34394,-0.078 0.11363,-0.033 0.22607,-0.071 0.33636,-0.1157 0.11022,-0.045 0.21845,-0.095 0.32361,-0.1519 0.10499,-0.057 0.20727,-0.119 0.3066,-0.1852 0.0988,-0.067 0.19324,-0.1404 0.28396,-0.2174 0.0905,-0.077 0.17674,-0.1593 0.25784,-0.2455 0.0812,-0.086 0.15736,-0.1763 0.22812,-0.2697 0.0707,-0.093 0.13599,-0.1902 0.19542,-0.2895 0.0594,-0.099 0.11298,-0.201 0.16039,-0.3045 0.0474,-0.1034 0.0887,-0.2085 0.1237,-0.3145 0.0349,-0.1059 0.0637,-0.2126 0.0861,-0.3192 0.0224,-0.1066 0.0385,-0.2132 0.0483,-0.3187 0.01,-0.1056 0.0134,-0.2102 0.011,-0.3128"
       title="t+cos(3*t) 3+sin(3*t)"
       id="path3164" />
    <path
       id="path3166"
       title="t+cos(3*t) 3+sin(3*t)"
       d="m 95.449047,960.61173 c -0.002,0.0995 0.003,0.20102 0.013,0.30354 0.0105,0.10252 0.0272,0.20625 0.0501,0.31001 0.0229,0.10377 0.0522,0.20781 0.0878,0.31112 0.0356,0.10323 0.0774,0.20594 0.12545,0.30689 0.048,0.10103 0.10215,0.20036 0.16216,0.29735 0.06,0.097 0.12592,0.19144 0.19724,0.28286 0.0714,0.0913 0.14824,0.17935 0.2301,0.26344 0.0819,0.084 0.16874,0.16416 0.26005,0.23957 0.0913,0.0754 0.18703,0.14614 0.28637,0.21196 0.099,0.0665 0.20268,0.12589 0.30886,0.18057 0.10613,0.0547 0.21563,0.10314 0.32665,0.14683 0.11099,0.0437 0.22495,0.0799 0.33972,0.11075 0.11495,0.0307 0.23117,0.055 0.34781,0.0731 0.11669,0.0182 0.23379,0.0297 0.35055,0.0349 0.11672,0.005 0.23308,0.004 0.34803,-0.003 0.11502,-0.007 0.22872,-0.0209 0.34026,-0.0406 0.11154,-0.0197 0.22096,-0.0451 0.32739,-0.0762 0.1065,-0.0312 0.20992,-0.0679 0.30972,-0.10979 0.0998,-0.0418 0.195813,-0.0888 0.287533,-0.14036 0.0917,-0.0515 0.17902,-0.10749 0.26129,-0.16748 0.0822,-0.0599 0.15963,-0.12364 0.23151,-0.1905 0.0718,-0.0668 0.1383,-0.13677 0.19874,-0.2091 0.0604,-0.0723 0.11525,-0.14676 0.16374,-0.22279 0.0493,-0.0756 0.091,-0.1534 0.12707,-0.23136 0.036,-0.0781 0.0663,-0.15641 0.0895,-0.23471 0.0235,-0.0782 0.0408,-0.15603 0.0518,-0.23261 0.011,-0.0766 0.0158,-0.15192 0.0147,-0.22521 -0.001,-0.0734 -0.008,-0.14435 -0.0213,-0.2127 -0.013,-0.0682 -0.0314,-0.13357 -0.055,-0.19517 -0.0238,-0.0618 -0.0526,-0.1196 -0.0863,-0.17306 -0.0336,-0.0535 -0.0718,-0.10279 -0.11421,-0.14687 -0.0422,-0.0444 -0.0887,-0.0832 -0.13825,-0.11709 -0.0501,-0.0326 -0.10244,-0.0621 -0.15822,-0.0837 -0.0556,-0.0218 -0.11359,-0.0381 -0.17312,-0.0489 -0.0595,-0.0106 -0.1211,-0.0142 -0.18319,-0.0119 -0.062,0.002 -0.12519,0.0111 -0.18817,0.0257 -0.0629,0.0146 -0.1258,0.0365 -0.187713,0.0644 -0.0619,0.0278 -0.12288,0.0619 -0.18209,0.10198 -0.0593,0.0401 -0.11656,0.0864 -0.17123,0.13858 -0.0548,0.0522 -0.10676,0.1099 -0.15565,0.17299 -0.0486,0.063 -0.0939,0.13165 -0.13523,0.20486 -0.0413,0.0732 -0.0782,0.15132 -0.11048,0.23351 -0.0323,0.0822 -0.0598,0.16853 -0.082,0.25832 -0.0222,0.0897 -0.0392,0.18294 -0.0505,0.27874 -0.0113,0.0958 -0.0169,0.19418 -0.0164,0.29441 5.3e-4,0.10028 0.007,0.20224 0.0198,0.30513 0.0128,0.10283 0.0318,0.20671 0.0571,0.31062 0.0253,0.10381 0.057,0.20773 0.0948,0.31073 0.0378,0.10296 0.082,0.20521 0.13228,0.30552 0.0502,0.10054 0.10664,0.19902 0.1688,0.29506 0.0621,0.096 0.13009,0.18958 0.2035,0.2796 0.0734,0.0901 0.1522,0.17668 0.23585,0.25938 0.0837,0.0824 0.172273,0.16106 0.265173,0.23477 0.093,0.0736 0.19011,0.14263 0.29082,0.20645 0.10099,0.0633 0.20522,0.12199 0.31246,0.17462 0.10754,0.052 0.21775,0.0986 0.32942,0.1403 0.11201,0.0412 0.22628,0.0756 0.34171,0.10373 0.11536,0.0284 0.23182,0.0505 0.34864,0.0662 0.11685,0.0156 0.23399,0.0249 0.35052,0.0278 0.11657,0.003 0.23248,-4.7e-4 0.34699,-0.0101 0.11446,-0.01 0.22753,-0.0258 0.33825,-0.0472 0.11074,-0.0217 0.21921,-0.0495 0.3245,-0.0826 0.10534,-0.0332 0.20755,-0.0719 0.30596,-0.11563 0.0984,-0.0437 0.19302,-0.0926 0.28299,-0.14563 0.09,-0.0531 0.1755,-0.11074 0.25604,-0.17204 0.0805,-0.0614 0.15589,-0.12627 0.22577,-0.19424 0.0697,-0.0679 0.1341,-0.13891 0.19237,-0.21201 0.0584,-0.0732 0.11086,-0.14825 0.15714,-0.22477 0.0462,-0.0765 0.0865,-0.15418 0.11997,-0.23247 0.0336,-0.0781 0.0607,-0.15689 0.0826,-0.23467 0.0217,-0.0778 0.0361,-0.15552 0.045,-0.23159 0.009,-0.076 0.0113,-0.15078 0.008,-0.2233 -0.003,-0.0724 -0.0128,-0.14273 -0.0277,-0.20984 -0.0149,-0.067 -0.0353,-0.1311 -0.061,-0.19139 -0.0256,-0.0603 -0.0563,-0.11669 -0.0917,-0.16865 -0.0352,-0.0517 -0.0751,-0.0993 -0.11891,-0.14168 -0.0438,-0.0423 -0.0915,-0.0796 -0.14222,-0.11121 -0.0508,-0.0318 -0.10499,-0.0574 -0.16134,-0.0774 -0.0559,-0.0209 -0.11508,-0.0343 -0.17531,-0.0422 -0.0602,-0.008 -0.12206,-0.01 -0.18449,-0.005 -0.0624,0.005 -0.12553,0.0161 -0.18845,0.0332 -0.0628,0.0174 -0.12556,0.0414 -0.18708,0.0714 -0.0615,0.0301 -0.12193,0.0666 -0.18051,0.10886 -0.0585,0.0425 -0.11499,0.0908 -0.16876,0.14506 -0.0539,0.0542 -0.1047,0.11394 -0.15205,0.17918 -0.0475,0.0651 -0.0913,0.13542 -0.1309,0.21043 -0.0389,0.0753 -0.0744,0.15489 -0.10604,0.23813 -0.0316,0.083 -0.0562,0.17139 -0.0764,0.26242 -0.0203,0.0908 -0.0353,0.1852 -0.0444,0.28198 -0.009,0.0968 -0.0125,0.19593 -0.01,0.2968 0.003,0.10086 0.0115,0.20333 0.0266,0.30654 0.0151,0.10318 0.0365,0.20716 0.064,0.31106 0.0276,0.10375 0.0616,0.20756 0.10179,0.31017 0.0401,0.10273 0.0866,0.2043 0.13912,0.30397 0.0525,0.0997 0.11103,0.19758 0.17534,0.29258 0.0643,0.0951 0.13428,0.18749 0.2097,0.27613 0.0754,0.0888 0.15609,0.17399 0.24157,0.25507 0.0855,0.081 0.17578,0.15775 0.2702,0.22976 0.0945,0.0719 0.19313,0.13896 0.29521,0.20066 0.10204,0.0619 0.20768,0.11797 0.31571,0.16897 0.10817,0.0506 0.21889,0.0959 0.33215,0.13351 0.11318,0.0379 0.2276,0.0708 0.34336,0.0969 0.11576,0.0261 0.23251,0.0458 0.34944,0.0591 0.11694,0.0134 0.2339,0.0203 0.35021,0.0209 0.11629,6.1e-4 0.23185,-0.005 0.34579,-0.0171 0.11407,-0.012 0.22629,-0.0297 0.33611,-0.0538 0.10984,-0.024 0.21726,-0.0537 0.32143,-0.0889 0.10404,-0.0352 0.20511,-0.0759 0.30202,-0.12146 0.0969,-0.0456 0.19002,-0.0961 0.27829,-0.15077 0.0884,-0.0547 0.17212,-0.11381 0.25067,-0.17647 0.0786,-0.0625 0.15194,-0.1289 0.21977,-0.19791 0.0678,-0.069 0.13004,-0.14083 0.18622,-0.21466 0.0562,-0.0737 0.10633,-0.14965 0.15045,-0.22653 0.0441,-0.0767 0.0812,-0.15518 0.11362,-0.23307 0.0324,-0.0778 0.0566,-0.15671 0.0757,-0.23448 0.0189,-0.0778 0.0316,-0.15493 0.0379,-0.23052 0.007,-0.0757 0.007,-0.14957 10e-4,-0.22124 -0.006,-0.0716 -0.017,-0.14083 -0.034,-0.20674 -0.0171,-0.0662 -0.0394,-0.12872 -0.067,-0.18761 -0.0274,-0.0589 -0.0599,-0.11366 -0.0969,-0.16394 -0.037,-0.0502 -0.0784,-0.0959 -0.12353,-0.13634 -0.045,-0.0407 -0.0942,-0.0756 -0.14607,-0.10519 -0.0522,-0.0291 -0.10769,-0.0521 -0.16388,-0.072 -0.057,-0.0182 -0.11661,-0.0296 -0.17737,-0.0355 -0.0609,-0.006 -0.12293,-0.005 -0.18562,0.002 -0.0627,0.007 -0.12585,0.0202 -0.18863,0.0403 -0.0628,0.0198 -0.12509,0.0461 -0.18626,0.0783 -0.0611,0.0323 -0.12087,0.0713 -0.1787,0.11571 -0.0578,0.0447 -0.11344,0.0952 -0.16597,0.15155 -0.0527,0.0563 -0.10246,0.11811 -0.14857,0.18513 -0.0467,0.0666 -0.0884,0.13913 -0.1264,0.21592 -0.0375,0.0769 -0.0714,0.15802 -0.10008,0.24327 -0.0286,0.0851 -0.0524,0.17419 -0.0708,0.26632 -0.0183,0.0921 -0.0311,0.18749 -0.0381,0.28511 -0.007,0.0976 -0.008,0.19755 -0.003,0.299 0.005,0.10134 0.016,0.20432 0.0335,0.30778 0.0173,0.10345 0.041,0.20755 0.071,0.31129 0.03,0.10371 0.0662,0.20725 0.10871,0.30944 0.0424,0.10205 0.0912,0.20334 0.14592,0.30224 0.0547,0.0989 0.11547,0.19582 0.18184,0.28991 0.0663,0.0941 0.13846,0.18515 0.2158,0.27259 0.0773,0.0875 0.15986,0.17123 0.24708,0.25072 0.0871,0.0796 0.17917,0.15449 0.27515,0.22458 0.096,0.0701 0.19603,0.13525 0.29936,0.19498 0.10297,0.0605 0.21037,0.11316 0.31899,0.16279 0.10969,0.0475 0.22094,0.091 0.3345,0.12709 0.11355,0.0362 0.22876,0.0664 0.34487,0.09 0.11607,0.0238 0.2331,0.0409 0.35,0.052 0.11686,0.011 0.23381,0.0155 0.34974,0.0138 0.1161,-0.002 0.2311,-0.01 0.34439,-0.024 0.11325,-0.0138 0.2248,-0.0344 0.33374,-0.0605 0.10894,-0.0261 0.21527,-0.058 0.3182,-0.0951 0.10288,-0.0372 0.20252,-0.0797 0.29797,-0.12706 0.0955,-0.0472 0.18681,-0.0996 0.27348,-0.15581 0.0866,-0.0563 0.16853,-0.11686 0.24517,-0.18078 0.0767,-0.0638 0.14809,-0.13129 0.2137,-0.20136 0.0658,-0.07 0.12574,-0.14274 0.17971,-0.21727 0.0539,-0.0745 0.10183,-0.1509 0.1436,-0.22818 0.0412,-0.0776 0.077,-0.15563 0.10717,-0.23349 0.0293,-0.0782 0.0521,-0.1567 0.0687,-0.23416 0.0166,-0.0776 0.0269,-0.15428 0.0311,-0.22918 0.004,-0.0748 0.002,-0.14826 -0.005,-0.21894 -0.008,-0.0706 -0.0212,-0.13882 -0.0403,-0.2037 -0.0191,-0.0647 -0.0435,-0.12623 -0.0728,-0.18356 -0.0293,-0.0574 -0.0636,-0.11062 -0.10212,-0.15917 -0.0384,-0.0485 -0.0814,-0.0923 -0.12795,-0.13091 -0.0462,-0.0394 -0.0966,-0.0718 -0.1497,-0.0993 -0.0534,-0.0264 -0.10855,-0.0503 -0.16678,-0.0653 -0.0581,-0.0156 -0.11804,-0.0253 -0.17931,-0.0285 -0.0613,-0.004 -0.12382,-3.3e-4 -0.18653,0.009 -0.0628,0.01 -0.12595,0.0251 -0.18854,0.0473 -0.0625,0.0221 -0.1246,0.0505 -0.18526,0.0853 -0.0606,0.0346 -0.11981,0.0756 -0.17669,0.12247 -0.0568,0.0469 -0.11163,0.0996 -0.16313,0.15793 -0.0515,0.0583 -0.1,0.1222 -0.14483,0.19103 -0.0444,0.069 -0.0855,0.14283 -0.12192,0.22118 -0.0366,0.0782 -0.0685,0.16117 -0.0953,0.24768 -0.0273,0.0863 -0.0486,0.17687 -0.065,0.27014 -0.0163,0.0933 -0.0271,0.18953 -0.0318,0.28806 -0.005,0.0984 -0.004,0.19906 0.004,0.30101 0.007,0.10187 0.0207,0.20517 0.0403,0.3088 0.0197,0.10366 0.0457,0.20783 0.0779,0.31136 0.0322,0.10352 0.0709,0.20674 0.11564,0.3085 0.0448,0.10174 0.0957,0.20219 0.15266,0.30037 0.057,0.0982 0.11979,0.19417 0.18826,0.28708 0.0684,0.093 0.14257,0.18278 0.22181,0.26884 0.0792,0.0859 0.16356,0.16846 0.25246,0.24631 0.089,0.0778 0.18247,0.15118 0.27988,0.21952 0.0975,0.0681 0.19877,0.13156 0.30336,0.18912 0.1047,0.0573 0.21245,0.1094 0.32201,0.15682 0.10998,0.0465 0.22291,0.0859 0.33684,0.12023 0.11407,0.0339 0.22976,0.0618 0.3462,0.0831 0.11633,0.0214 0.23344,0.0363 0.35034,0.045 0.11684,0.009 0.23355,0.0109 0.34918,0.007 0.11567,-0.004 0.2302,-0.014 0.34277,-0.0308 0.1126,-0.0168 0.22327,-0.0388 0.33126,-0.067 0.10795,-0.0283 0.2131,-0.0621 0.31479,-0.10127 0.10168,-0.0391 0.19981,-0.0835 0.29376,-0.13263 0.094,-0.0491 0.18372,-0.10295 0.26853,-0.1607"
       style="fill:none;stroke:#000000;stroke-width:0.5;stroke-miterlimit:4;stroke-opacity:1;stroke-dasharray:none"
       inkscape:connector-curvature="0" />
    <path
       transform="matrix(-1.0121904,0.35591204,-0.35591204,-1.0121904,250.45159,976.93496)"
       d="m 145.55118,36.991859 a 7.0029345,7.0029345 0 1 1 -14.00587,0 7.0029345,7.0029345 0 1 1 14.00587,0 z"
       sodipodi:ry="7.0029345"
       sodipodi:rx="7.0029345"
       sodipodi:cy="36.991859"
       sodipodi:cx="138.54825"
       id="path4020"
       style="fill:#33b5e5;fill-opacity:1;stroke:none"
       sodipodi:type="arc" />
    <path
       id="path3004"
       title="t+cos(3*t) 3+sin(3*t)"
       d="m 103.18936,977.85969 c -0.0942,0.0321 -0.18819,0.0707 -0.28108,0.11528 -0.0929,0.0446 -0.18476,0.0956 -0.27455,0.15243 -0.0898,0.0568 -0.1777,0.11975 -0.26277,0.18832 -0.085,0.0685 -0.16739,0.14279 -0.24601,0.22225 -0.0787,0.0795 -0.15375,0.16415 -0.22458,0.25354 -0.0708,0.0894 -0.13727,0.18347 -0.19903,0.28161 -0.0616,0.0982 -0.11831,0.20035 -0.1696,0.30591 -0.0512,0.10549 -0.0971,0.21447 -0.13696,0.32597 -0.0399,0.11146 -0.0739,0.22556 -0.10207,0.34135 -0.0289,0.11572 -0.0496,0.2334 -0.0649,0.35183 -0.0153,0.11838 -0.0238,0.23785 -0.0271,0.3571 -0.003,0.11923 0.001,0.23872 0.0112,0.35715 0.0102,0.11855 0.0269,0.23609 0.0494,0.35195 0.0226,0.11592 0.0514,0.23 0.0862,0.34159 0.0346,0.11159 0.0754,0.22057 0.12132,0.32623 0.0459,0.10565 0.0974,0.20798 0.15368,0.30627 0.0564,0.0982 0.11751,0.19248 0.18293,0.28202 0.0656,0.0895 0.13514,0.17437 0.20845,0.25401 0.0733,0.0796 0.15011,0.15396 0.22968,0.22275 0.0796,0.0687 0.16195,0.13184 0.24629,0.18885 0.0842,0.057 0.17053,0.10812 0.25782,0.15302 0.0872,0.0448 0.17563,0.0836 0.26419,0.11588 0.0885,0.0323 0.17718,0.0585 0.26517,0.0783 0.0878,0.0207 0.17518,0.0334 0.26076,0.0409 0.0857,0.007 0.16962,0.009 0.25115,0.004 0.0815,-0.004 0.16061,-0.0146 0.23636,-0.0303 0.0757,-0.0157 0.1482,-0.0371 0.2168,-0.0627 0.0686,-0.026 0.13293,-0.0569 0.19283,-0.0923 0.0597,-0.0354 0.11497,-0.0749 0.16486,-0.11808 0.05,-0.0433 0.0946,-0.0901 0.13345,-0.13996 0.0389,-0.0498 0.0723,-0.10244 0.0993,-0.15731 0.0273,-0.0548 0.0482,-0.11171 0.0632,-0.16982 0.0136,-0.0582 0.0236,-0.11743 0.025,-0.17724 0.002,-0.0597 -0.003,-0.11981 -0.0129,-0.17943 -0.0103,-0.0596 -0.0278,-0.11869 -0.051,-0.17633 -0.0231,-0.0577 -0.053,-0.11395 -0.0885,-0.16804 -0.0355,-0.0541 -0.0771,-0.10592 -0.1243,-0.15469 -0.0472,-0.0488 -0.0999,-0.0945 -0.15778,-0.13661 -0.0579,-0.0421 -0.12087,-0.0803 -0.18851,-0.11396 -0.0677,-0.0338 -0.13962,-0.0631 -0.21558,-0.0876 -0.0758,-0.0243 -0.15573,-0.0436 -0.23862,-0.0576 -0.0829,-0.014 -0.1689,-0.0222 -0.25715,-0.0246 -0.0883,-0.002 -0.17885,9.8e-4 -0.2708,0.0107 -0.0918,0.01 -0.1854,0.0252 -0.27932,0.0472 -0.094,0.0217 -0.18837,0.0501 -0.28247,0.0846 -0.0941,0.0346 -0.1878,0.0754 -0.28026,0.12226 -0.0924,0.0469 -0.18361,0.10014 -0.27276,0.15921 -0.089,0.059 -0.17604,0.12409 -0.26003,0.19474 -0.084,0.0706 -0.16515,0.14684 -0.24241,0.22821 -0.0775,0.0814 -0.15096,0.1679 -0.22016,0.259 -0.0692,0.0911 -0.13411,0.18676 -0.19384,0.28638 -0.0597,0.0997 -0.11447,0.20318 -0.16382,0.30994 -0.0491,0.10679 -0.093,0.21675 -0.13073,0.32917 -0.0377,0.11244 -0.0696,0.22725 -0.0953,0.34366 -0.0253,0.1165 -0.045,0.23445 -0.0581,0.35319 -0.0124,0.11881 -0.0188,0.2383 -0.02,0.3575 -6.7e-4,0.11932 0.006,0.23847 0.0185,0.35662 0.0125,0.11814 0.0312,0.2352 0.0562,0.3504 0.0249,0.11523 0.0561,0.22852 0.0929,0.33911 0.0369,0.1106 0.0795,0.21848 0.12743,0.32291 0.0481,0.10434 0.10132,0.20534 0.15934,0.30208 0.058,0.0968 0.121,0.18936 0.18794,0.27713 0.067,0.0878 0.13812,0.17077 0.21271,0.24847 0.0745,0.0777 0.15261,0.1501 0.23311,0.21668 0.0805,0.0666 0.16377,0.12744 0.24879,0.18236 0.0851,0.0549 0.17172,0.10373 0.25939,0.14635 0.0875,0.0425 0.17621,0.0789 0.26476,0.1089 0.0886,0.0301 0.1771,0.0539 0.26478,0.0714 0.0877,0.0175 0.17439,0.029 0.25939,0.0338 0.0849,0.005 0.16819,0.004 0.24879,-0.002 0.0805,-0.006 0.15854,-0.0189 0.2331,-0.0364 0.0745,-0.0176 0.14563,-0.0406 0.21267,-0.0685 0.067,-0.0278 0.1299,-0.0605 0.18797,-0.0973 0.058,-0.0368 0.1113,-0.0778 0.15928,-0.12244 0.048,-0.0445 0.0906,-0.0926 0.12747,-0.14351 0.0367,-0.0508 0.0678,-0.10437 0.0928,-0.15996 0.0249,-0.0556 0.0438,-0.11307 0.0563,-0.17155 0.0126,-0.0586 0.0183,-0.11825 0.018,-0.17805 6.9e-4,-0.0597 -0.007,-0.11991 -0.0198,-0.17924 -0.0131,-0.0593 -0.0324,-0.11807 -0.0581,-0.17519 -0.0255,-0.0572 -0.0575,-0.11272 -0.0953,-0.16596 -0.0377,-0.0531 -0.0816,-0.10403 -0.13076,-0.15167 -0.0492,-0.0476 -0.10411,-0.092 -0.16376,-0.13277 -0.0598,-0.0406 -0.12448,-0.0773 -0.19376,-0.10944 -0.0692,-0.0322 -0.14274,-0.0598 -0.22018,-0.0821 -0.0773,-0.0226 -0.15839,-0.0399 -0.24239,-0.0516 -0.084,-0.0111 -0.17094,-0.0173 -0.25999,-0.0189 -0.0889,-0.001 -0.18029,0.005 -0.27277,0.0173 -0.0923,0.0121 -0.18619,0.0297 -0.28021,0.0544 -0.094,0.0247 -0.18853,0.0548 -0.28248,0.0916 -0.094,0.0368 -0.18731,0.08 -0.27927,0.1292 -0.0919,0.0492 -0.18245,0.1047 -0.27081,0.16586 -0.0882,0.0611 -0.17431,0.12843 -0.25715,0.20111 -0.083,0.0726 -0.16271,0.15087 -0.23862,0.23412 -0.076,0.0833 -0.14811,0.17155 -0.21561,0.2643 -0.0677,0.0928 -0.13072,0.19 -0.18846,0.29105 -0.058,0.10108 -0.11061,0.20591 -0.15783,0.31385 -0.0471,0.1079 -0.0887,0.21892 -0.1243,0.33219 -0.0354,0.11326 -0.0651,0.22886 -0.0884,0.34583 -0.0235,0.11697 -0.0404,0.23539 -0.0517,0.35433 -0.0109,0.11894 -0.0158,0.23843 -0.0127,0.35775 0.003,0.11934 0.0107,0.23814 0.0255,0.35585 0.0148,0.11775 0.036,0.23422 0.0632,0.3487 0.0271,0.11456 0.0604,0.22689 0.0993,0.33648 0.0389,0.10958 0.0837,0.2163 0.13361,0.31939 0.05,0.10323 0.10508,0.20261 0.16487,0.29781 0.0599,0.0951 0.1243,0.1861 0.19282,0.27211 0.0684,0.0859 0.1411,0.16711 0.2168,0.24281 0.0759,0.0757 0.15493,0.14607 0.23636,0.21051 0.0814,0.0645 0.16553,0.1232 0.25113,0.17581 0.0855,0.0526 0.17285,0.0991 0.26079,0.13947 0.088,0.0404 0.17664,0.0744 0.26517,0.10221 0.0884,0.0277 0.17687,0.0492 0.26416,0.0645 0.0871,0.0154 0.17353,0.0236 0.25781,0.0277 0.0842,0.004 0.16661,-5e-5 0.24625,-0.009 0.0796,-0.008 0.15654,-0.0225 0.22965,-0.0428 0.0734,-0.0194 0.143,-0.0444 0.20847,-0.0741 0.0654,-0.0297 0.12669,-0.0638 0.18289,-0.10224 0.0564,-0.0385 0.10768,-0.0808 0.15368,-0.12678 0.0461,-0.0457 0.0865,-0.095 0.12126,-0.14688 0.0347,-0.0518 0.0636,-0.10635 0.0863,-0.16249 0.023,-0.0562 0.0392,-0.11428 0.0493,-0.17312 0.01,-0.0589 0.0124,-0.11898 0.0121,-0.1786 -0.002,-0.0598 -0.0118,-0.11974 -0.0269,-0.17888 -0.0154,-0.0591 -0.0371,-0.1173 -0.065,-0.17386 -0.0279,-0.0565 -0.0621,-0.11135 -0.10201,-0.16371 -0.04,-0.0523 -0.0858,-0.10204 -0.13689,-0.1486 -0.0512,-0.0465 -0.10805,-0.0895 -0.16954,-0.12876 -0.0618,-0.0392 -0.12812,-0.0744 -0.19892,-0.10461 -0.0708,-0.0305 -0.14589,-0.0563 -0.2246,-0.0768 -0.0785,-0.0213 -0.16088,-0.0359 -0.24601,-0.0455 -0.0851,-0.009 -0.17289,-0.0136 -0.26279,-0.0114 -0.0898,0.002 -0.18165,0.01 -0.27452,0.0239 -0.0928,0.0143 -0.18681,0.0349 -0.28115,0.0607 -0.0941,0.0268 -0.18859,0.0594 -0.28231,0.0986 -0.0936,0.0391 -0.1867,0.0845 -0.27812,0.13601 -0.0914,0.0515 -0.18127,0.10905 -0.26866,0.17251 -0.0873,0.0635 -0.17241,0.13274 -0.2541,0.20737 -0.0816,0.0745 -0.16026,0.15485 -0.2347,0.23992 -0.0744,0.085 -0.14493,0.17513 -0.21088,0.26952 -0.066,0.0944 -0.12711,0.19312 -0.18306,0.29557 -0.056,0.10251 -0.10674,0.20852 -0.15187,0.31757 -0.0452,0.10893 -0.0844,0.22099 -0.11774,0.33507 -0.0333,0.11408 -0.0606,0.23032 -0.0817,0.3478 -0.022,0.11743 -0.035,0.2363 -0.0447,0.35532 -0.007,0.1193 -0.0105,0.2387 -0.006,0.35779 0.005,0.11906 0.0153,0.23768 0.0326,0.35492 0.0171,0.11722 0.0407,0.23314 0.07,0.34686 0.0293,0.11365 0.0649,0.22517 0.10578,0.33365 0.0412,0.10857 0.0878,0.21399 0.13959,0.31575 0.0517,0.10169 0.10872,0.19974 0.17029,0.29334 0.0616,0.0936 0.12764,0.18278 0.19756,0.26696 0.0699,0.0841 0.14375,0.16339 0.22075,0.23707 0.0768,0.0738 0.1571,0.14187 0.23945,0.20428 0.0823,0.0623 0.16715,0.1188 0.25332,0.16917 0.0861,0.0505 0.17379,0.0947 0.26198,0.13258 0.0882,0.0381 0.17697,0.0698 0.26541,0.0952 0.0884,0.0255 0.17653,0.0446 0.26339,0.0575 0.087,0.0124 0.17253,0.0196 0.256,0.0214 0.0835,9.5e-4 0.16509,-0.004 0.24356,-0.015 0.0787,-0.0103 0.15425,-0.0271 0.2262,-0.0483 0.0719,-0.0211 0.14018,-0.0483 0.20404,-0.0796 0.0638,-0.0313 0.12338,-0.067 0.17789,-0.10711 0.0543,-0.0399 0.10395,-0.0838 0.14793,-0.1308 0.044,-0.047 0.0824,-0.0974 0.11501,-0.15012 0.0326,-0.0527 0.0591,-0.10797 0.0797,-0.16482 0.0214,-0.0568 0.0347,-0.1153 0.0425,-0.17452 0.007,-0.0592 0.0104,-0.11916 0.005,-0.17904 -0.005,-0.0599 -0.0164,-0.11959 -0.0341,-0.17836 -0.0176,-0.0587 -0.0418,-0.11654 -0.0718,-0.17238 -0.0301,-0.0559 -0.0664,-0.10991 -0.10852,-0.16125 -0.042,-0.0513 -0.0899,-0.10001 -0.1432,-0.14525 -0.0531,-0.0453 -0.11174,-0.087 -0.17522,-0.12457 -0.0634,-0.0375 -0.13157,-0.0711 -0.20395,-0.0998 -0.0723,-0.0286 -0.14889,-0.0525 -0.22888,-0.0713 -0.08,-0.0183 -0.16338,-0.0319 -0.24945,-0.0396 -0.086,-0.008 -0.17486,-0.01 -0.26532,-0.005 -0.0905,0.004 -0.18288,0.0144 -0.27615,0.0307 -0.0933,0.0164 -0.18746,0.0389 -0.28173,0.068 -0.0943,0.0289 -0.18849,0.0641 -0.2819,0.10554 -0.0934,0.0414 -0.18595,0.0892 -0.27677,0.14278 -0.0908,0.0537 -0.17994,0.11357 -0.26636,0.17908 -0.0864,0.0654 -0.17037,0.13691 -0.25086,0.21359 -0.0805,0.0767 -0.15764,0.15872 -0.23063,0.24562 -0.073,0.087 -0.14193,0.17863 -0.20606,0.27459 -0.0642,0.096 -0.12347,0.19619 -0.17749,0.29995 -0.0539,0.10371 -0.102869,0.21107 -0.145889,0.32112 -0.0429,0.11009 -0.0802,0.22299 -0.11137,0.33782 -0.031,0.11488 -0.0562,0.23164 -0.0748,0.34957 -0.0183,0.11794 -0.0307,0.23698 -0.0381,0.35613 -0.006,0.11924 -0.005,0.23883 0.001,0.35765 0.007,0.11882 0.0199,0.23709 0.0395,0.35383 0.0194,0.11669 0.0451,0.2319 0.0767,0.34479 0.0316,0.11281 0.0691,0.22334 0.11224,0.33072 0.0432,0.10739 0.0917,0.21158 0.145419,0.31193 0.0537,0.10036 0.11234,0.1968 0.17559,0.28877 0.0632,0.0919 0.13078,0.17934 0.20217,0.26167 0.0713,0.0824 0.14641,0.15957 0.22454,0.23123 0.0781,0.0716 0.15924,0.13782 0.24237,0.19797"
       style="fill:none;stroke:#000000;stroke-width:0.5;stroke-miterlimit:4;stroke-opacity:1;stroke-dasharray:none"
       inkscape:connector-curvature="0"
       inkscape:transform-center-x="-2.493283"
       inkscape:transform-center-y="-10.427263" />
    <path
       sodipodi:type="arc"
       style="fill:#d1e11d;fill-opacity:1;stroke:none"
       id="path4022"
       sodipodi:cx="138.54825"
       sodipodi:cy="36.991859"
       sodipodi:rx="7.0029345"
       sodipodi:ry="7.0029345"
       d="m 145.55118,36.991859 a 7.0029345,7.0029345 0 1 1 -14.00587,0 7.0029345,7.0029345 0 1 1 14.00587,0 z"
       transform="matrix(-1.0121904,0.35591204,-0.35591204,-1.0121904,205.01227,980.94467)" />
    <path
       inkscape:connector-curvature="0"
       style="fill:none;stroke:#000000;stroke-width:0.5;stroke-miterlimit:4;stroke-opacity:1;stroke-dasharray:none"
       d="m 77.848407,1001.8669 c -0.0689,-0.072 -0.1432,-0.1411 -0.2227,-0.2066 -0.0795,-0.065 -0.16438,-0.1275 -0.25368,-0.1852 -0.0893,-0.058 -0.18329,-0.1109 -0.28126,-0.1593 -0.0978,-0.048 -0.19991,-0.092 -0.30504,-0.13 -0.10525,-0.038 -0.21354,-0.071 -0.32441,-0.097 -0.11085,-0.027 -0.22417,-0.047 -0.33916,-0.062 -0.11495,-0.015 -0.23162,-0.024 -0.34886,-0.025 -0.11729,-0 -0.23534,0 -0.35335,0.013 -0.11787,0.011 -0.2357,0.028 -0.35261,0.051 -0.11724,0.022 -0.23259,0.053 -0.34652,0.089 -0.11254,0.04 -0.22549,0.079 -0.33447,0.1282 -0.10895,0.049 -0.2161,0.1015 -0.31946,0.1601 -0.10345,0.059 -0.20304,0.1233 -0.29855,0.1929 -0.0956,0.07 -0.18714,0.1432 -0.27379,0.2217 -0.0867,0.078 -0.16851,0.161 -0.24511,0.2471 -0.0765,0.086 -0.14782,0.1758 -0.21337,0.2682 -0.0653,0.093 -0.12533,0.1875 -0.17912,0.2844 -0.0537,0.097 -0.10146,0.1959 -0.14296,0.2959 -0.0413,0.1004 -0.0767,0.2009 -0.10565,0.302 -0.0288,0.1013 -0.0517,0.2023 -0.068,0.3028 -0.0164,0.1001 -0.0265,0.2002 -0.0306,0.2982 -0.004,0.098 -0.002,0.1945 0.006,0.2885 0.008,0.094 0.0213,0.1854 0.0403,0.2735 0.018,0.088 0.0432,0.173 0.0724,0.2539 0.0293,0.081 0.0629,0.1578 0.10146,0.2298 0.0384,0.072 0.0808,0.1396 0.12681,0.2017 0.046,0.062 0.0956,0.1191 0.14799,0.1704 0.0524,0.051 0.10747,0.097 0.16474,0.1362 0.0572,0.039 0.11625,0.073 0.1764,0.1001 0.0605,0.028 0.12164,0.048 0.18306,0.062 0.0616,0.014 0.12326,0.022 0.18452,0.024 0.0612,0 0.12153,-0 0.18073,-0.014 0.0592,-0.01 0.11638,-0.028 0.17202,-0.05 0.0562,-0.02 0.10762,-0.053 0.15738,-0.087 0.0497,-0.034 0.096,-0.075 0.13845,-0.1208 0.0425,-0.046 0.081,-0.096 0.11533,-0.1509 0.0339,-0.055 0.0637,-0.1146 0.0881,-0.1778 0.0244,-0.064 0.0438,-0.1304 0.0577,-0.2006 0.0138,-0.071 0.0221,-0.1433 0.0242,-0.2189 0.002,-0.076 -0.001,-0.1532 -0.011,-0.2324 -0.01,-0.079 -0.0258,-0.1597 -0.048,-0.2407 -0.0222,-0.081 -0.0508,-0.1627 -0.0857,-0.2438 -0.0349,-0.081 -0.076,-0.1619 -0.1234,-0.2412 -0.0474,-0.08 -0.10082,-0.1577 -0.16019,-0.2337 -0.0591,-0.076 -0.12457,-0.1499 -0.19542,-0.2208 -0.0708,-0.071 -0.14729,-0.1388 -0.22864,-0.203 -0.0812,-0.064 -0.16804,-0.1246 -0.25906,-0.1807 -0.091,-0.056 -0.1866,-0.1075 -0.28595,-0.1541 -0.0993,-0.047 -0.20263,-0.088 -0.30893,-0.1242 -0.10628,-0.036 -0.21579,-0.067 -0.32752,-0.091 -0.1116,-0.024 -0.22581,-0.043 -0.34132,-0.056 -0.11556,-0.012 -0.23259,-0.019 -0.35006,-0.018 -0.11763,0 -0.23578,0.01 -0.35369,0.019 -0.11794,0.013 -0.23559,0.032 -0.35187,0.058 -0.11633,0.026 -0.23185,0.057 -0.34486,0.096 -0.11302,0.039 -0.22547,0.079 -0.33288,0.1319 -0.10847,0.05 -0.21381,0.1059 -0.31599,0.1662 -0.10185,0.061 -0.20048,0.1267 -0.29448,0.1979 -0.094,0.071 -0.18368,0.1473 -0.26875,0.2267 -0.0849,0.08 -0.16486,0.164 -0.23951,0.2513 -0.0744,0.088 -0.14377,0.1783 -0.20721,0.2715 -0.0634,0.093 -0.12101,0.1894 -0.17255,0.287 -0.0515,0.098 -0.097,0.197 -0.13614,0.2974 -0.0391,0.1007 -0.0721,0.2015 -0.0987,0.3026 -0.0264,0.1015 -0.0469,0.2021 -0.061,0.3023 -0.014,0.1003 -0.022,0.1994 -0.0239,0.2968 -0.002,0.097 0.002,0.1932 0.0124,0.2861 0.01,0.093 0.0255,0.1834 0.0464,0.2702 0.021,0.087 0.047,0.1705 0.0783,0.2497 0.031,0.079 0.0672,0.1543 0.10634,0.225 0.0394,0.071 0.0837,0.1359 0.13089,0.1962 0.0474,0.061 0.098,0.1151 0.15146,0.1642 0.0533,0.049 0.10949,0.092 0.16728,0.1298 0.0577,0.037 0.11732,0.068 0.17798,0.093 0.0604,0.024 0.12196,0.043 0.18376,0.055 0.0616,0.012 0.12336,0.018 0.18411,0.017 0.0607,-0 0.12106,-0.01 0.17943,-0.021 0.0594,-0.01 0.11601,-0.03 0.16915,-0.058 0.0561,-0.02 0.10602,-0.056 0.15428,-0.093 0.0482,-0.037 0.0937,-0.079 0.13442,-0.1268 0.0411,-0.047 0.0781,-0.1 0.1106,-0.1561 0.0322,-0.057 0.0602,-0.1176 0.0827,-0.1824 0.0227,-0.064 0.0398,-0.1331 0.0517,-0.2044 0.0118,-0.071 0.0179,-0.1454 0.0179,-0.2218 1.7e-4,-0.076 -0.006,-0.1546 -0.0179,-0.2343 -0.012,-0.08 -0.0303,-0.1605 -0.055,-0.2417 -0.0254,-0.081 -0.056,-0.1624 -0.0921,-0.2438 -0.0361,-0.082 -0.0806,-0.1613 -0.13028,-0.2403 -0.0495,-0.079 -0.10516,-0.1565 -0.16677,-0.2316 -0.0614,-0.075 -0.12893,-0.1481 -0.20179,-0.2179 -0.0729,-0.07 -0.1512,-0.1364 -0.23451,-0.1992 -0.0834,-0.063 -0.17166,-0.1216 -0.26428,-0.1761 -0.0926,-0.054 -0.18976,-0.1043 -0.2905,-0.1489 -0.10087,-0.045 -0.20527,-0.084 -0.31272,-0.1182 -0.10756,-0.034 -0.21789,-0.062 -0.3304,-0.085 -0.11244,-0.022 -0.22735,-0.039 -0.34329,-0.049 -0.11604,-0.01 -0.23349,-0.014 -0.35114,-0.012 -0.11781,0 -0.23577,0.012 -0.35364,0.027 -0.11784,0.015 -0.23502,0.037 -0.35095,0.065 -0.11595,0.028 -0.23066,0.062 -0.34336,0.1016 -0.11252,0.04 -0.22202,0.089 -0.33014,0.1384 -0.10718,0.053 -0.21174,0.1094 -0.31231,0.1723 -0.10064,0.063 -0.19749,0.1309 -0.28995,0.2037 -0.0925,0.073 -0.18045,0.1504 -0.2636,0.2316 -0.0832,0.081 -0.16118,0.1667 -0.23374,0.2554 -0.0726,0.089 -0.13973,0.1805 -0.20101,0.2747 -0.0611,0.095 -0.11669,0.1909 -0.16596,0.2893 -0.0493,0.098 -0.0924,0.1982 -0.12931,0.2987 -0.0367,0.1008 -0.0675,0.202 -0.0917,0.3029 -0.0244,0.1009 -0.0423,0.202 -0.0541,0.3018 -0.0119,0.1 -0.0173,0.1985 -0.017,0.2952 1.8e-4,0.096 0.007,0.1916 0.0186,0.2836 0.0121,0.092 0.0297,0.1811 0.0524,0.2668 0.0226,0.085 0.0514,0.1675 0.0832,0.2457 0.0316,0.078 0.07,0.1511 0.11113,0.2198 0.0412,0.068 0.0865,0.1323 0.13517,0.1906 0.0486,0.058 0.10033,0.1111 0.15477,0.158 0.0543,0.047 0.11116,0.088 0.1696,0.1231 0.0585,0.035 0.11841,0.063 0.17957,0.086 0.0607,0.022 0.12252,0.038 0.18422,0.048 0.0617,0.01 0.12314,0.013 0.18357,0.01 0.0608,-0 0.12011,-0.012 0.17795,-0.028 0.0562,-0.02 0.11284,-0.04 0.1688,-0.059 0.0526,-0.029 0.10376,-0.061 0.15097,-0.1 0.0472,-0.039 0.0909,-0.083 0.13057,-0.1318 0.0396,-0.049 0.0751,-0.1027 0.10573,-0.1613 0.0306,-0.058 0.0566,-0.1206 0.0774,-0.1866 0.0208,-0.066 0.0358,-0.1357 0.0456,-0.208 0.01,-0.072 0.0137,-0.1475 0.0114,-0.2244 -0.002,-0.077 -0.0103,-0.156 -0.0246,-0.2361 -0.0136,-0.08 -0.035,-0.1611 -0.062,-0.2424 -0.0276,-0.082 -0.0603,-0.1626 -0.1,-0.2434 -0.0395,-0.08 -0.0852,-0.1606 -0.13697,-0.2391 -0.0517,-0.078 -0.10975,-0.155 -0.17343,-0.2294 -0.0637,-0.074 -0.13314,-0.1462 -0.20807,-0.2148 -0.0746,-0.068 -0.15512,-0.1339 -0.24024,-0.1952 -0.085,-0.061 -0.17511,-0.1188 -0.26939,-0.1714 -0.0943,-0.053 -0.19284,-0.1007 -0.29492,-0.1435 -0.1019,-0.043 -0.20785,-0.08 -0.31632,-0.1122 -0.1084,-0.032 -0.2198,-0.058 -0.33317,-0.078 -0.11343,-0.02 -0.22864,-0.034 -0.34513,-0.042 -0.11652,-0.01 -0.23394,-0.01 -0.35197,-0 -0.11801,0 -0.23602,0.016 -0.35345,0.034 -0.11741,0.018 -0.23434,0.042 -0.34987,0.072 -0.1159,0.029 -0.22903,0.068 -0.34135,0.1084 -0.1127,0.04 -0.22112,0.091 -0.32723,0.1447 -0.1061,0.054 -0.20922,0.1139 -0.30849,0.1785 -0.0993,0.065 -0.19439,0.1351 -0.28537,0.2092 -0.0908,0.074 -0.17711,0.1534 -0.25839,0.2361 -0.0813,0.083 -0.15731,0.1695 -0.22788,0.2593 -0.0706,0.089 -0.13563,0.1826 -0.1947,0.2777 -0.0591,0.095 -0.11225,0.1927 -0.15928,0.2915 -0.0469,0.099 -0.0879,0.199 -0.12243,0.2999 -0.0348,0.1002 -0.0628,0.2021 -0.0848,0.3031 -0.0219,0.101 -0.0376,0.2016 -0.0471,0.3009 -0.01,0.099 -0.0129,0.1975 -0.0103,0.2935 0.002,0.096 0.011,0.1899 0.0251,0.2808 0.0139,0.091 0.0337,0.1789 0.0584,0.2633 0.0254,0.084 0.0547,0.1646 0.088,0.2412 0.0341,0.076 0.0732,0.1481 0.11592,0.2148 0.0427,0.067 0.0894,0.1286 0.13905,0.1848 0.0496,0.056 0.1027,0.107 0.1579,0.1518 0.055,0.044 0.11267,0.084 0.1719,0.1165 0.0589,0.032 0.11986,0.06 0.18083,0.079 0.061,0.02 0.12305,0.034 0.18454,0.041 0.0613,0.01 0.12294,0.01 0.18316,0 0.0606,-0 0.11937,-0.016 0.17634,-0.034 0.0562,-0.02 0.11251,-0.041 0.16459,-0.071 0.0522,-0.03 0.10154,-0.065 0.14751,-0.106 0.046,-0.04 0.0881,-0.087 0.12624,-0.1376 0.0382,-0.05 0.0717,-0.1069 0.10075,-0.1663 0.0288,-0.06 0.053,-0.1235 0.0717,-0.1909 0.0188,-0.067 0.0321,-0.138 0.0395,-0.2114 0.007,-0.074 0.009,-0.1492 0.005,-0.227 -0.005,-0.078 -0.0149,-0.1571 -0.0314,-0.2376 -0.0169,-0.08 -0.0397,-0.1617 -0.0689,-0.243 -0.0289,-0.081 -0.0647,-0.1628 -0.10645,-0.2431 -0.0414,-0.081 -0.0898,-0.1599 -0.14381,-0.2377 -0.054,-0.077 -0.11407,-0.1538 -0.18004,-0.2272 -0.0657,-0.073 -0.13728,-0.1441 -0.21417,-0.2115 -0.0768,-0.067 -0.15899,-0.1313 -0.24584,-0.1912 -0.0868,-0.06 -0.17867,-0.1155 -0.2744,-0.1665 -0.0958,-0.051 -0.19579,-0.097 -0.29921,-0.1379 -0.10346,-0.041 -0.21026,-0.076 -0.31977,-0.1062 -0.10943,-0.029 -0.2217,-0.054 -0.33572,-0.072 -0.11411,-0.018 -0.22993,-0.03 -0.34679,-0.035 -0.11686,-0.01 -0.23465,-0 -0.35268,0 -0.11788,0.01 -0.23618,0.021 -0.35345,0.041 -0.11731,0.02 -0.23386,0.046 -0.3486,0.079 -0.11572,0.03 -0.22862,0.07 -0.33786,0.1188 -0.11255,0.04 -0.21877,0.096 -0.32414,0.1511 -0.105,0.056 -0.20693,0.1173 -0.30451,0.1845 -0.0979,0.066 -0.19151,0.1383 -0.28067,0.2144 -0.0892,0.076 -0.17367,0.1565 -0.25299,0.2408 -0.0794,0.084 -0.15348,0.1721 -0.22198,0.263 -0.0685,0.091 -0.13145,0.1845 -0.18831,0.2807 -0.0568,0.096 -0.10784,0.1939 -0.15258,0.2933 -0.0447,0.1 -0.0833,0.1999 -0.1155,0.3009 -0.0321,0.1014 -0.0582,0.2024 -0.0779,0.3031"
       title="t+cos(3*t) 3+sin(3*t)"
       id="path4024" />
    <path
       sodipodi:type="arc"
       style="fill:#ff4444;fill-opacity:1;stroke:none"
       id="path4786"
       sodipodi:cx="138.54825"
       sodipodi:cy="36.991859"
       sodipodi:rx="7.0029345"
       sodipodi:ry="7.0029345"
       d="m 145.55118,36.991859 a 7.0029345,7.0029345 0 1 1 -14.00587,0 7.0029345,7.0029345 0 1 1 14.00587,0 z"
       transform="matrix(1.0729412,0,0,1.0729412,-62.146778,926.26597)" />
    <path
       transform="matrix(1.0729412,0,0,1.0729412,-84.20371,933.09152)"
       d="m 145.55118,36.991859 a 7.0029345,7.0029345 0 1 1 -14.00587,0 7.0029345,7.0029345 0 1 1 14.00587,0 z"
       sodipodi:ry="7.0029345"
       sodipodi:rx="7.0029345"
       sodipodi:cy="36.991859"
       sodipodi:cx="138.54825"
       id="path4788"
       style="fill:#99cc00;fill-opacity:1;stroke:none"
       sodipodi:type="arc" />
    <path
       transform="matrix(-1.0121904,0.35591204,-0.35591204,-1.0121904,238.22656,1005.0518)"
       d="m 145.55118,36.991859 a 7.0029345,7.0029345 0 1 1 -14.00587,0 7.0029345,7.0029345 0 1 1 14.00587,0 z"
       sodipodi:ry="7.0029345"
       sodipodi:rx="7.0029345"
       sodipodi:cy="36.991859"
       sodipodi:cx="138.54825"
       id="path4790"
       style="fill:#d1e11d;fill-opacity:1;stroke:none"
       sodipodi:type="arc" />
    <path
       id="path4792"
       title="t+cos(3*t) 3+sin(3*t)"
       d="m 65.293191,986.66787 c 0.0826,0.055 0.17015,0.107 0.26187,0.154 0.0917,0.047 0.18792,0.089 0.28749,0.1264 0.0996,0.037 0.20283,0.069 0.30891,0.095 0.10599,0.026 0.21497,0.047 0.3258,0.061 0.1109,0.015 0.22371,0.023 0.33774,0.025 0.11401,0 0.22914,0 0.34464,-0.012 0.11542,-0.01 0.23111,-0.027 0.34618,-0.05 0.11499,-0.023 0.2295,-0.053 0.34241,-0.088 0.11289,-0.036 0.22432,-0.078 0.33355,-0.1253 0.10959,-0.047 0.21581,-0.1017 0.3194,-0.1612 0.10354,-0.059 0.20375,-0.1249 0.30074,-0.1944 0.097,-0.069 0.18931,-0.1454 0.27758,-0.225 0.0883,-0.08 0.17174,-0.1642 0.25035,-0.2523 0.0786,-0.088 0.15201,-0.1801 0.21983,-0.2753 0.0679,-0.095 0.12999,-0.1935 0.18636,-0.2939 0.0563,-0.1006 0.10667,-0.2034 0.1509,-0.3077 0.0441,-0.1043 0.0822,-0.21 0.11388,-0.3163 0.0316,-0.1064 0.0571,-0.2131 0.0761,-0.3196 0.0191,-0.1065 0.0318,-0.2127 0.0384,-0.3177 0.006,-0.1049 0.007,-0.2087 0.001,-0.3103 -0.006,-0.1016 -0.0171,-0.2012 -0.0341,-0.2979 -0.0171,-0.097 -0.0397,-0.1904 -0.0676,-0.2804 -0.0279,-0.09 -0.0606,-0.1765 -0.0981,-0.2586 -0.0367,-0.082 -0.0794,-0.1597 -0.12518,-0.2323 -0.046,-0.073 -0.0953,-0.1407 -0.14841,-0.2027 -0.0529,-0.062 -0.10884,-0.119 -0.16715,-0.1698 -0.0583,-0.051 -0.11896,-0.096 -0.18112,-0.1347 -0.0622,-0.039 -0.12572,-0.071 -0.19012,-0.098 -0.0643,-0.026 -0.12918,-0.046 -0.19375,-0.06 -0.0647,-0.014 -0.12898,-0.021 -0.19217,-0.022 -0.0632,-9e-4 -0.12529,0 -0.18535,0.016 -0.0601,0.011 -0.11811,0.029 -0.17342,0.052 -0.0545,0.024 -0.10778,0.052 -0.15625,0.087 -0.0486,0.035 -0.0937,0.075 -0.13508,0.1188 -0.0412,0.044 -0.0777,0.094 -0.10952,0.1473 -0.0319,0.053 -0.0587,0.1111 -0.0802,0.1721 -0.0215,0.061 -0.0377,0.1255 -0.048,0.1926 -0.0103,0.067 -0.0148,0.1368 -0.0133,0.2083 0.001,0.071 0.009,0.1448 0.0233,0.219 0.014,0.074 0.0342,0.1493 0.0607,0.2247 0.0265,0.075 0.0595,0.1504 0.0985,0.2248 0.039,0.074 0.0845,0.1479 0.136,0.2196 0.0515,0.072 0.10898,0.1419 0.17233,0.2092 0.0633,0.067 0.13227,0.1323 0.20657,0.1938 0.0742,0.062 0.15385,0.1197 0.23826,0.1738 0.0845,0.054 0.17363,0.1039 0.26689,0.1492 0.0933,0.045 0.19083,0.086 0.29178,0.1208 0.10091,0.035 0.20534,0.065 0.31238,0.089 0.10697,0.024 0.21683,0.043 0.32836,0.055 0.11169,0.013 0.22502,0.019 0.33942,0.019 0.11433,1e-4 0.22984,-0.01 0.3453,-0.019 0.11552,-0.013 0.23103,-0.032 0.34589,-0.057 0.11473,-0.026 0.22882,-0.057 0.34118,-0.095 0.11233,-0.038 0.22304,-0.082 0.33133,-0.1319 0.10808,-0.05 0.21392,-0.106 0.31637,-0.1675 0.10209,-0.062 0.20111,-0.1292 0.29677,-0.2003 0.0954,-0.072 0.18637,-0.1489 0.27275,-0.2305 0.0865,-0.081 0.16837,-0.1672 0.245,-0.2567 0.0767,-0.09 0.14802,-0.1829 0.2138,-0.2792 0.0657,-0.096 0.12589,-0.1954 0.18001,-0.2968 0.054,-0.1014 0.10221,-0.2049 0.14413,-0.3096 0.0419,-0.1048 0.0776,-0.2109 0.10697,-0.3173 0.0293,-0.1065 0.0524,-0.2133 0.0692,-0.3197 0.0168,-0.1064 0.0272,-0.2123 0.0315,-0.3167 0.004,-0.1044 0.002,-0.2075 -0.005,-0.3084 -0.008,-0.1009 -0.0213,-0.1995 -0.0404,-0.2951 -0.0191,-0.095 -0.0437,-0.1881 -0.0735,-0.2767 -0.0297,-0.089 -0.0642,-0.1736 -0.10331,-0.254 -0.0392,-0.08 -0.0825,-0.1564 -0.12998,-0.2271 -0.0473,-0.071 -0.0987,-0.1362 -0.15212,-0.1968 -0.0535,-0.06 -0.11095,-0.1148 -0.16998,-0.1636 -0.0591,-0.049 -0.12045,-0.091 -0.18318,-0.128 -0.0627,-0.037 -0.12677,-0.067 -0.19119,-0.091 -0.0644,-0.024 -0.12925,-0.042 -0.19383,-0.053 -0.0645,-0.011 -0.12855,-0.016 -0.19138,-0.015 -0.0626,0.001 -0.12415,0.01 -0.18354,0.023 -0.0593,0.014 -0.11651,0.034 -0.17065,0.059 -0.0543,0.025 -0.10526,0.057 -0.15269,0.093 -0.048,0.036 -0.0914,0.078 -0.13072,0.1243 -0.0393,0.046 -0.0744,0.097 -0.10435,0.1522 -0.0301,0.055 -0.0549,0.114 -0.0745,0.1762 -0.0195,0.062 -0.0335,0.1279 -0.0417,0.1959 -0.008,0.068 -0.0103,0.1386 -0.007,0.2107 0.004,0.072 0.0138,0.1459 0.0301,0.2205 0.0162,0.075 0.0388,0.1498 0.0678,0.225 0.0288,0.075 0.0641,0.1503 0.10555,0.2243 0.042,0.074 0.0896,0.1466 0.14228,0.2184 0.0526,0.072 0.11334,0.1403 0.1788,0.2067 0.0652,0.066 0.1363,0.1303 0.21261,0.1904 0.0763,0.06 0.15769,0.117 0.24384,0.1695 0.0862,0.052 0.17696,0.1008 0.2718,0.1443 0.0948,0.043 0.19373,0.082 0.2959,0.1153 0.10208,0.033 0.20771,0.061 0.3157,0.083 0.10803,0.022 0.21857,0.038 0.33078,0.048 0.11224,0.01 0.22619,0.014 0.34088,0.012 0.1148,0 0.23037,-0.011 0.34577,-0.026 0.11555,-0.015 0.23087,-0.037 0.34538,-0.064 0.11438,-0.028 0.22794,-0.062 0.3397,-0.102 0.11163,-0.04 0.2216,-0.087 0.32886,-0.1388 0.10738,-0.052 0.21187,-0.1103 0.31339,-0.1733 0.1013,-0.063 0.1994,-0.1317 0.29255,-0.2063 0.0934,-0.074 0.18317,-0.1525 0.26789,-0.2356 0.0848,-0.083 0.16475,-0.1703 0.23943,-0.2613 0.0748,-0.091 0.14414,-0.1853 0.20782,-0.2826 0.0637,-0.097 0.12161,-0.1975 0.17349,-0.2996 0.052,-0.1023 0.0978,-0.2063 0.13738,-0.3115 0.0395,-0.1052 0.073,-0.2115 0.10001,-0.3181 0.027,-0.1065 0.0477,-0.2135 0.0622,-0.3195 0.0144,-0.1062 0.0226,-0.2118 0.0246,-0.3156 0.002,-0.1039 -0.002,-0.2063 -0.0119,-0.3063 -0.01,-0.1 -0.0257,-0.1976 -0.0467,-0.2921 -0.0211,-0.094 -0.0476,-0.1856 -0.079,-0.2729 -0.0314,-0.087 -0.0679,-0.1706 -0.10842,-0.2494 -0.0405,-0.079 -0.0862,-0.1525 -0.13394,-0.222 -0.0477,-0.069 -0.10082,-0.1327 -0.15574,-0.191 -0.0551,-0.058 -0.11289,-0.1107 -0.1729,-0.1571 -0.06,-0.047 -0.12185,-0.087 -0.18511,-0.1211 -0.0632,-0.034 -0.12747,-0.062 -0.19203,-0.084 -0.0648,-0.022 -0.12949,-0.037 -0.1939,-0.046 -0.0643,-0.01 -0.12799,-0.011 -0.19031,-0.01 -0.0623,0 -0.12314,0.014 -0.18157,0.03 -0.0587,0.016 -0.11468,0.038 -0.16768,0.066 -0.0528,0.028 -0.10222,0.062 -0.1495,0.098 -0.0462,0.038 -0.0882,0.082 -0.12615,0.1296 -0.0377,0.048 -0.071,0.1005 -0.0991,0.157 -0.0281,0.056 -0.0511,0.1168 -0.0686,0.1802 -0.0175,0.063 -0.0293,0.1301 -0.0355,0.1989 -0.006,0.069 -0.006,0.1402 4e-5,0.2129 0.006,0.073 0.0183,0.147 0.0371,0.2217 0.0186,0.075 0.0435,0.1502 0.0747,0.2253 0.0306,0.075 0.0688,0.1498 0.11259,0.2234 0.0442,0.073 0.0938,0.1459 0.14985,0.2162 0.056,0.07 0.11774,0.1387 0.18509,0.2042 0.0673,0.065 0.14052,0.128 0.21864,0.1869 0.0782,0.059 0.1614,0.1142 0.24931,0.1651 0.0878,0.051 0.18026,0.097 0.27655,0.1392 0.0962,0.042 0.1965,0.078 0.2999,0.1095 0.10337,0.031 0.20996,0.057 0.31884,0.077 0.10872,0.02 0.22025,0.034 0.33302,0.042 0.11271,0.01 0.22713,0.01 0.34218,0 0.11503,0 0.23067,-0.016 0.3461,-0.033 0.11547,-0.017 0.23061,-0.041 0.34473,-0.071 0.1141,-0.03 0.22704,-0.066 0.33803,-0.1089 0.11099,-0.043 0.22006,-0.091 0.32635,-0.1454 0.1068,-0.053 0.2093,-0.1151 0.30999,-0.1793 0.0995,-0.066 0.19639,-0.1361 0.28844,-0.2118 0.092,-0.076 0.17997,-0.156 0.26291,-0.2406 0.083,-0.084 0.16102,-0.1735 0.23384,-0.2656 0.0728,-0.092 0.14006,-0.1879 0.20167,-0.2861 0.0615,-0.098 0.11726,-0.1994 0.16696,-0.3022 0.0497,-0.1027 0.0933,-0.2074 0.13055,-0.313 0.0373,-0.1057 0.0683,-0.2122 0.0931,-0.3188 0.0247,-0.1066 0.0431,-0.2133 0.0552,-0.3192 0.0122,-0.1058 0.0179,-0.2109 0.0178,-0.3143 -1.9e-4,-0.1032 -0.007,-0.2049 -0.0186,-0.304 -0.0119,-0.099 -0.0298,-0.1957 -0.0529,-0.2888 -0.023,-0.093 -0.0515,-0.1831 -0.0848,-0.2689 -0.0332,-0.086 -0.0714,-0.1675 -0.11354,-0.2446 -0.0428,-0.077 -0.0888,-0.1492 -0.13778,-0.2168 -0.0497,-0.067 -0.10322,-0.1289 -0.15928,-0.1849 -0.0561,-0.056 -0.11492,-0.1064 -0.17549,-0.1506 -0.0606,-0.044 -0.12324,-0.082 -0.18677,-0.1144 -0.0635,-0.032 -0.12804,-0.058 -0.19289,-0.077 -0.0647,-0.019 -0.1296,-0.032 -0.19363,-0.039 -0.0641,-0.01 -0.1274,-0.01 -0.18912,-8e-4 -0.0616,0.01 -0.12173,0.018 -0.17942,0.036 -0.0582,0.017 -0.11283,0.042 -0.16468,0.072 -0.0512,0.03 -0.10117,0.064 -0.14545,0.1046 -0.0447,0.04 -0.0853,0.085 -0.12139,0.135 -0.0361,0.049 -0.0675,0.1038 -0.0938,0.1615 -0.0263,0.058 -0.0473,0.1194 -0.0627,0.1839 -0.0155,0.065 -0.0253,0.1321 -0.029,0.2019 -0.004,0.07 -0.002,0.1417 0.007,0.2149 0.008,0.073 0.023,0.1478 0.0439,0.2228 0.021,0.075 0.0483,0.1503 0.0817,0.2253 0.0338,0.075 0.0734,0.1494 0.11943,0.2226 0.0458,0.073 0.0981,0.1451 0.15615,0.2146 0.0576,0.07 0.12207,0.1369 0.19147,0.2013 0.0695,0.064 0.1444,0.1257 0.22457,0.1832 0.08,0.058 0.16504,0.1114 0.25457,0.1606 0.0894,0.049 0.18347,0.094 0.28114,0.134 0.0977,0.04 0.19931,0.075 0.30373,0.1038 0.10442,0.029 0.21209,0.053 0.32184,0.071 0.10974,0.018 0.22176,0.029 0.3351,0.035 0.11339,0.01 0.2281,0 0.3433,0 0.11524,-0.01 0.23091,-0.02 0.34622,-0.04 0.11522,-0.02 0.23029,-0.046 0.34394,-0.078 0.11363,-0.033 0.22607,-0.071 0.33636,-0.1157 0.11022,-0.045 0.21845,-0.095 0.32361,-0.1519 0.10499,-0.057 0.20727,-0.119 0.3066,-0.1852 0.0988,-0.067 0.19324,-0.1404 0.28396,-0.2174 0.0905,-0.077 0.17674,-0.1593 0.25784,-0.2455 0.0812,-0.086 0.15736,-0.1763 0.22812,-0.2697 0.0707,-0.093 0.13599,-0.1902 0.19542,-0.2895 0.0594,-0.099 0.11298,-0.201 0.16039,-0.3045 0.0474,-0.1034 0.0887,-0.2085 0.1237,-0.3145 0.0349,-0.1059 0.0637,-0.2126 0.0861,-0.3192 0.0224,-0.1066 0.0385,-0.2132 0.0483,-0.3187 0.01,-0.1056 0.0134,-0.2102 0.011,-0.3128"
       style="fill:none;stroke:#000000;stroke-width:0.5;stroke-miterlimit:4;stroke-opacity:1;stroke-dasharray:none"
       inkscape:connector-curvature="0" />
    <path
       inkscape:transform-center-y="1.679333"
       inkscape:transform-center-x="-10.582131"
       inkscape:connector-curvature="0"
       style="fill:none;stroke:#000000;stroke-width:0.5;stroke-miterlimit:4;stroke-opacity:1;stroke-dasharray:none"
       d="m 141.89136,985.55725 c -0.0402,-0.0911 -0.0868,-0.18134 -0.13927,-0.27 -0.0525,-0.0887 -0.11129,-0.17576 -0.17571,-0.26027 -0.0644,-0.0845 -0.13474,-0.16662 -0.21044,-0.24541 -0.0756,-0.0787 -0.1568,-0.15435 -0.24279,-0.22577 -0.086,-0.0715 -0.17689,-0.1389 -0.27209,-0.2017 -0.0952,-0.0628 -0.19471,-0.12081 -0.29784,-0.1738 -0.10318,-0.0528 -0.20987,-0.10046 -0.31949,-0.14238 -0.10954,-0.0418 -0.2221,-0.0781 -0.33664,-0.10812 -0.1145,-0.0301 -0.23113,-0.054 -0.34893,-0.072 -0.11779,-0.0187 -0.23682,-0.0291 -0.35614,-0.0341 -0.11926,-0.005 -0.23901,-0.003 -0.3581,0.004 -0.11904,0.007 -0.23773,0.0217 -0.35483,0.0422 -0.11721,0.0205 -0.23286,0.0473 -0.34632,0.0798 -0.11352,0.0326 -0.22467,0.0712 -0.33281,0.11555 -0.10816,0.0442 -0.21318,0.0943 -0.31445,0.14921 -0.10127,0.0549 -0.19873,0.11511 -0.29176,0.17971 -0.0929,0.0647 -0.18154,0.13379 -0.26506,0.20675 -0.0835,0.0731 -0.16197,0.14978 -0.23494,0.22973 -0.0729,0.0799 -0.14033,0.16292 -0.20195,0.24817 -0.0615,0.0853 -0.11726,0.17279 -0.16673,0.26177 -0.0495,0.0888 -0.0929,0.17928 -0.13004,0.27014 -0.037,0.0908 -0.068,0.18223 -0.0925,0.27326 -0.0245,0.091 -0.0429,0.18159 -0.055,0.27097 -0.013,0.0893 -0.0181,0.17742 -0.0181,0.26333 4.7e-4,0.086 0.006,0.16976 0.0178,0.25054 0.0111,0.0808 0.0285,0.15874 0.0507,0.23284 0.0222,0.074 0.0498,0.14441 0.0813,0.21053 0.0319,0.0661 0.0682,0.12748 0.10871,0.18408 0.0404,0.0564 0.0846,0.10803 0.13196,0.15397 0.0475,0.046 0.098,0.0864 0.15102,0.12079 0.053,0.0344 0.10834,0.0631 0.16535,0.0852 0.057,0.0224 0.11547,0.0383 0.17467,0.0482 0.0592,0.008 0.11903,0.0133 0.17874,0.01 0.0597,-0.003 0.1191,-0.0134 0.17763,-0.0284 0.0585,-0.0154 0.11582,-0.038 0.17123,-0.0661 0.0555,-0.028 0.10891,-0.0627 0.15972,-0.10277 0.0508,-0.0401 0.0988,-0.086 0.1433,-0.13727 0.0445,-0.0513 0.0855,-0.10773 0.12238,-0.16905 0.0369,-0.0613 0.0695,-0.12739 0.0971,-0.1977 0.0278,-0.0704 0.0507,-0.14458 0.0685,-0.22238 0.0176,-0.0776 0.0299,-0.15893 0.0366,-0.24272 0.007,-0.0838 0.007,-0.17019 0.002,-0.25832 -0.006,-0.0881 -0.0165,-0.17808 -0.0342,-0.26884 -0.0179,-0.0906 -0.0412,-0.18251 -0.0713,-0.27416 -0.0298,-0.0918 -0.0663,-0.18331 -0.10882,-0.27405 -0.0427,-0.0907 -0.0914,-0.18054 -0.14615,-0.26858 -0.0548,-0.088 -0.11572,-0.17421 -0.18231,-0.25789 -0.0665,-0.0835 -0.13892,-0.1646 -0.2166,-0.24213 -0.0776,-0.0775 -0.16064,-0.15176 -0.24841,-0.22166 -0.0878,-0.0701 -0.18038,-0.1358 -0.27715,-0.19682 -0.0968,-0.061 -0.19771,-0.11738 -0.30214,-0.16823 -0.10451,-0.0508 -0.21236,-0.0964 -0.32301,-0.13626 -0.11065,-0.0396 -0.22401,-0.0738 -0.33928,-0.10164 -0.11529,-0.0278 -0.23244,-0.0496 -0.35064,-0.0651 -0.11826,-0.0151 -0.23747,-0.0245 -0.3569,-0.0272 -0.11944,-0.002 -0.23904,0.002 -0.35789,0.0111 -0.11893,0.01 -0.23705,0.0267 -0.35366,0.0494 -0.11661,0.0227 -0.2316,0.0515 -0.34419,0.0864 -0.11263,0.0348 -0.22278,0.0757 -0.32976,0.12202 -0.10697,0.0464 -0.21074,0.0982 -0.31061,0.155 -0.0998,0.057 -0.19576,0.11878 -0.2871,0.18499 -0.0914,0.0662 -0.17813,0.137 -0.25975,0.21131 -0.0816,0.0744 -0.15812,0.15244 -0.22904,0.2335 -0.0709,0.081 -0.13628,0.16507 -0.19561,0.25105 -0.0593,0.086 -0.11273,0.17423 -0.16005,0.2637 -0.0473,0.0896 -0.0884,0.18008 -0.12326,0.27112 -0.0347,0.0909 -0.0633,0.1824 -0.0855,0.27322 -0.0223,0.0909 -0.0383,0.18112 -0.0481,0.26999 -0.01,0.0889 -0.0137,0.17625 -0.0111,0.26134 0.002,0.085 0.0106,0.1679 0.0236,0.24768 0.013,0.0797 0.0326,0.1563 0.0565,0.22905 0.024,0.0727 0.0531,0.14155 0.0867,0.20592 0.0335,0.0643 0.0716,0.12415 0.11326,0.1788 0.0417,0.0546 0.0872,0.10412 0.13582,0.14804 0.0485,0.0439 0.10012,0.0822 0.15404,0.11452 0.0538,0.0321 0.10987,0.0585 0.16742,0.0785 0.0575,0.02 0.11645,0.0338 0.17579,0.0412 0.0595,0.007 0.1194,0.008 0.17894,0.002 0.0595,-0.005 0.11885,-0.0174 0.17685,-0.0353 0.0579,-0.0182 0.1148,-0.0425 0.16947,-0.0731 0.0548,-0.0304 0.1073,-0.0671 0.15706,-0.10936 0.0496,-0.0422 0.0965,-0.0903 0.13973,-0.14344 0.0431,-0.0531 0.0826,-0.11171 0.11804,-0.17468 0.0352,-0.0631 0.0662,-0.13073 0.0922,-0.20254 0.0261,-0.0717 0.0472,-0.14739 0.0627,-0.22648 0.0158,-0.079 0.026,-0.16126 0.0303,-0.24595 0.004,-0.0847 0.002,-0.1718 -0.004,-0.26065 -0.007,-0.0887 -0.0206,-0.17918 -0.0409,-0.27024 -0.0201,-0.0909 -0.0458,-0.1829 -0.0786,-0.27442 -0.0328,-0.0915 -0.071,-0.18306 -0.1158,-0.27345 -0.0448,-0.0904 -0.096,-0.17965 -0.15297,-0.26699 -0.057,-0.0873 -0.12016,-0.17266 -0.18877,-0.25537 -0.0685,-0.0826 -0.14309,-0.16249 -0.22269,-0.23871 -0.0795,-0.0764 -0.16444,-0.14898 -0.25397,-0.21737 -0.0896,-0.0685 -0.18377,-0.13264 -0.28204,-0.19183 -0.0983,-0.0594 -0.20064,-0.11371 -0.30632,-0.16245 -0.10574,-0.049 -0.21474,-0.0923 -0.32638,-0.12997 -0.11158,-0.0375 -0.2258,-0.0693 -0.34173,-0.095 -0.11591,-0.0254 -0.23366,-0.045 -0.35221,-0.058 -0.11857,-0.0132 -0.23801,-0.0198 -0.35748,-0.0207 -0.11944,-5.2e-4 -0.2389,0.005 -0.3575,0.0184 -0.11863,0.0134 -0.23631,0.0314 -0.35229,0.0563 -0.11602,0.025 -0.2302,0.0562 -0.34189,0.0933 -0.11177,0.037 -0.22078,0.0799 -0.32658,0.12816 -0.10578,0.0483 -0.2082,0.10218 -0.30657,0.16086 -0.0985,0.0588 -0.19271,0.12229 -0.28236,0.19012 -0.0895,0.0679 -0.17459,0.14001 -0.25432,0.21574 -0.0796,0.0756 -0.15422,0.15509 -0.22305,0.23708 -0.0688,0.0822 -0.13206,0.16704 -0.18918,0.25376 -0.0572,0.0867 -0.10835,0.17561 -0.15332,0.26545 -0.045,0.0897 -0.0837,0.18081 -0.11628,0.27193 -0.0326,0.0912 -0.0588,0.18243 -0.0788,0.27305 -0.0199,0.0905 -0.0336,0.18047 -0.0413,0.26876 -0.008,0.0881 -0.008,0.17493 -0.005,0.25924 0.003,0.0842 0.0145,0.16598 0.0304,0.24454 0.0149,0.0786 0.036,0.15399 0.0626,0.22506 0.0257,0.0714 0.0566,0.1386 0.0919,0.20124 0.0353,0.0626 0.0746,0.12067 0.11775,0.17332 0.0433,0.0528 0.0899,0.10025 0.13965,0.14208 0.0495,0.0419 0.10216,0.0779 0.15686,0.10804 0.0546,0.0301 0.11148,0.0541 0.16938,0.0719 0.058,0.018 0.11725,0.0291 0.17675,0.0341 0.0595,0.005 0.1196,0.002 0.17897,-0.003 0.0594,-0.007 0.11826,-0.0222 0.17587,-0.0423 0.0575,-0.0205 0.11363,-0.0472 0.16755,-0.0799 0.0539,-0.0327 0.10553,-0.0715 0.15423,-0.11584 0.0486,-0.0444 0.0942,-0.0943 0.13614,-0.14929 0.0419,-0.055 0.0798,-0.11542 0.11354,-0.18009 0.0337,-0.065 0.063,-0.1341 0.0869,-0.20725 0.0242,-0.0732 0.0434,-0.15023 0.057,-0.23043 0.0144,-0.0801 0.0218,-0.16339 0.024,-0.24903 0.002,-0.0856 -0.001,-0.17342 -0.0115,-0.26279 -0.01,-0.0893 -0.0257,-0.18009 -0.0477,-0.2714 -0.0223,-0.0912 -0.051,-0.18307 -0.0849,-0.27482 -0.0349,-0.0914 -0.0756,-0.18271 -0.12276,-0.27267 -0.0471,-0.0899 -0.1004,-0.17865 -0.15966,-0.26525 -0.0592,-0.0866 -0.12439,-0.17111 -0.1952,-0.25265 -0.0709,-0.0815 -0.14722,-0.16023 -0.22867,-0.23512 -0.0813,-0.0748 -0.16819,-0.1462 -0.2594,-0.21297 -0.0911,-0.0667 -0.18706,-0.12916 -0.28683,-0.18666 -0.0998,-0.0576 -0.20343,-0.10985 -0.31036,-0.15668 -0.10698,-0.0469 -0.217,-0.0882 -0.32956,-0.1237 -0.11245,-0.0356 -0.22749,-0.0649 -0.34404,-0.0882 -0.11654,-0.0233 -0.23471,-0.0404 -0.35358,-0.0512 -0.1189,-0.0117 -0.23845,-0.0143 -0.35786,-0.0137 -0.11946,0.003 -0.23871,0.0103 -0.35696,0.0251 -0.11817,0.0153 -0.23545,0.0359 -0.35074,0.0633 -0.11529,0.0272 -0.22872,0.0608 -0.33947,0.0999 -0.11067,0.0391 -0.21868,0.0842 -0.32319,0.13437 -0.10458,0.0505 -0.20555,0.10606 -0.30243,0.1665 -0.0968,0.0603 -0.18954,0.12566 -0.27743,0.19513 -0.0879,0.0695 -0.171,0.14304 -0.24879,0.22001 -0.0777,0.077 -0.15028,0.15741 -0.21699,0.24052 -0.0668,0.0829 -0.12768,0.16883 -0.1827,0.25629 -0.0549,0.0874 -0.10382,0.17684 -0.14652,0.26707 -0.0428,0.0902 -0.0792,0.18136 -0.10931,0.2725 -0.0303,0.0912 -0.0542,0.18237 -0.0718,0.27268 -0.0177,0.0903 -0.0291,0.17974 -0.0344,0.26739 -0.005,0.0877 -0.005,0.17358 9.2e-4,0.25689 0.006,0.0833 0.0183,0.16412 0.0361,0.24134 0.0171,0.0775 0.0404,0.15131 0.0678,0.22115 0.0273,0.0698 0.0603,0.13545 0.097,0.19635 0.0367,0.0608 0.0775,0.11709 0.12216,0.16791 0.0445,0.0506 0.0925,0.0963 0.14316,0.136 0.0506,0.0398 0.1042,0.0736 0.15955,0.10153 0.0553,0.0279 0.1127,0.0495 0.17112,0.0651 0.0584,0.0164 0.11788,0.0245 0.17755,0.0272 0.0596,0.002 0.11962,10e-6 0.1788,-0.0106 0.0592,-0.0102 0.11771,-0.0267 0.17472,-0.0495 0.057,-0.0226 0.11247,-0.0518 0.16549,-0.0865 0.0531,-0.0348 0.10373,-0.0757 0.15121,-0.12212 0.0475,-0.0463 0.0918,-0.0983 0.13226,-0.15528 0.0405,-0.0568 0.077,-0.11888 0.10887,-0.18538 0.0318,-0.0664 0.0594,-0.13725 0.0817,-0.21185 0.0222,-0.0745 0.0394,-0.15289 0.0512,-0.23421 0.0113,-0.0813 0.0176,-0.16554 0.0178,-0.25195 5e-4,-0.0864 -0.005,-0.17507 -0.0181,-0.26475 -0.0118,-0.0898 -0.0302,-0.18094 -0.0546,-0.27244 -0.0245,-0.0915 -0.055,-0.18337 -0.0922,-0.27475 -0.037,-0.0914 -0.0802,-0.18221 -0.12963,-0.27167 -0.0494,-0.0895 -0.10502,-0.17749 -0.16629,-0.26331 -0.0614,-0.0858 -0.12878,-0.16939 -0.20155,-0.24979 -0.0727,-0.0804 -0.1512,-0.15783 -0.23458,-0.23136 -0.0834,-0.0735 -0.17182,-0.14325 -0.26473,-0.20841 -0.093,-0.0652 -0.19029,-0.12587 -0.29146,-0.18142 -0.10121,-0.0556 -0.20618,-0.10596 -0.31424,-0.15075 -0.108,-0.0447 -0.21921,-0.0841 -0.33258,-0.11744 -0.1134,-0.0332 -0.22911,-0.0605 -0.34622,-0.0816 -0.11714,-0.0209 -0.23565,-0.0359 -0.35475,-0.0442 -0.11908,-0.008 -0.23875,-0.01 -0.35809,-0.007 -0.11931,0.004 -0.23836,0.0158 -0.35621,0.0321 -0.11776,0.0173 -0.23446,0.0404 -0.34906,0.0701 -0.11456,0.0295 -0.2271,0.0651 -0.33682,0.10637 -0.10964,0.0413 -0.21649,0.0882 -0.31972,0.14055 -0.10323,0.0524 -0.20281,0.10974 -0.29811,0.17197 -0.0953,0.0622 -0.18629,0.12902 -0.27242,0.20002 -0.0861,0.071 -0.1673,0.14587 -0.24311,0.22414 -0.0759,0.0782 -0.14625,0.15973 -0.21085,0.24379 -0.0645,0.084 -0.12346,0.17061 -0.17616,0.25865"
       title="t+cos(3*t) 3+sin(3*t)"
       id="path4794" />
  </g>
</svg>
